<svg xmlns="http://www.w3.org/2000/svg" xmlns:xlink="http://www.w3.org/1999/xlink" fill="none" version="1.1" width="670" height="274" viewBox="0 0 670 274"><defs><linearGradient x1="0.9771817922592163" y1="-0.18214087188243866" x2="0.030818980187177658" y2="0.9635744690895081" id="master_svg0_0_1740"><stop offset="0%" stop-color="#1C150D" stop-opacity="1"/><stop offset="75.95542073249817%" stop-color="#0C0905" stop-opacity="1"/><stop offset="100%" stop-color="#2E2317" stop-opacity="1"/></linearGradient><linearGradient x1="0.021614765748381615" y1="0.027271168306469917" x2="1" y2="1" id="master_svg1_0_1742"><stop offset="0%" stop-color="#322913" stop-opacity="1"/><stop offset="100%" stop-color="#140F09" stop-opacity="1"/></linearGradient><mask id="master_svg2_0_2277" style="mask-type:alpha" maskUnits="userSpaceOnUse"><g><rect x="0" y="0" width="670" height="274" rx="28" fill="#FFFFFF" fill-opacity="1"/></g></mask></defs><g mask="url(#master_svg2_0_2277)"><g><rect x="0" y="0" width="670" height="274" rx="28" fill="url(#master_svg0_0_1740)" fill-opacity="1"/><rect x="0.5" y="0.5" width="669" height="273" rx="27.5" stroke="url(#master_svg1_0_1742)" fill-opacity="0" fill="none" stroke-width="1"/></g><g><g transform="matrix(1,2.4492937051703357e-16,-2.4492937051703357e-16,1,0,-9.947598300641403e-14)" style="opacity:0.05999999865889549;"><path d="M808.5166425781251,236.48908233642572Q808.5166425781251,241.47208233642573,808.271642578125,246.45008233642574Q808.0276425781251,251.4270823364257,807.5386425781251,256.3860823364257Q807.050642578125,261.34608233642575,806.318642578125,266.2750823364257Q805.587642578125,271.20508233642573,804.6156425781251,276.09208233642573Q803.6436425781251,280.98008233642577,802.4326425781251,285.8140823364257Q801.221642578125,290.6480823364257,799.774642578125,295.4170823364257Q798.327642578125,300.1860823364257,796.6486425781251,304.87808233642573Q794.9696425781251,309.57008233642574,793.0626425781251,314.1740823364257Q791.155642578125,318.7780823364257,789.024642578125,323.2830823364257Q786.8936425781251,327.7880823364257,784.544642578125,332.18308233642574Q782.194642578125,336.57708233642575,779.6326425781251,340.8520823364257Q777.070642578125,345.1260823364257,774.301642578125,349.27008233642573Q771.532642578125,353.4130823364257,768.5646425781251,357.41608233642575Q765.5956425781251,361.41908233642573,762.433642578125,365.2710823364257Q759.271642578125,369.12308233642574,755.924642578125,372.81508233642575Q752.578642578125,376.50808233642573,749.0546425781251,380.03208233642573Q745.530642578125,383.5550823364257,741.837642578125,386.90208233642574Q738.1446425781251,390.2490823364257,734.2926425781251,393.4100823364257Q730.4396425781251,396.5710823364257,726.436642578125,399.5400823364257Q722.433642578125,402.5090823364257,718.289642578125,405.27708233642574Q714.145642578125,408.04608233642574,709.871642578125,410.60808233642575Q705.596642578125,413.1700823364257,701.2016425781251,415.5190823364257Q696.8056425781251,417.86808233642574,692.300642578125,419.9990823364257Q687.7956425781251,422.1290823364257,683.1906425781251,424.03608233642575Q678.5866425781251,425.9440823364257,673.8946425781251,427.6220823364257Q669.2016425781251,429.30108233642574,664.4326425781251,430.74808233642574Q659.6636425781251,432.1940823364257,654.828642578125,433.4050823364257Q649.9946425781251,434.61608233642573,645.106642578125,435.5880823364257Q640.2186425781251,436.5610823364257,635.2886425781251,437.2920823364257Q630.358642578125,438.0230823364257,625.3986425781251,438.5110823364257Q620.439642578125,439.00008233642575,615.4616425781251,439.2440823364257Q610.483642578125,439.4890823364257,605.4996425781251,439.4890823364257Q600.516642578125,439.4890823364257,595.5386425781251,439.2440823364257Q590.560642578125,439.00008233642575,585.6006425781251,438.5110823364257Q580.641642578125,438.0230823364257,575.7116425781251,437.2920823364257Q570.781642578125,436.5610823364257,565.8936425781251,435.5880823364257Q561.005642578125,434.61608233642573,556.1706425781251,433.4050823364257Q551.3366425781251,432.1940823364257,546.5676425781251,430.74808233642574Q541.798642578125,429.30108233642574,537.1056425781251,427.6220823364257Q532.4136425781251,425.9440823364257,527.808642578125,424.03608233642575Q523.204642578125,422.1290823364257,518.699642578125,419.9990823364257Q514.193642578125,417.86808233642574,509.79864257812505,415.5190823364257Q505.4036425781251,413.1700823364257,501.12874257812507,410.60808233642575Q496.8540425781251,408.04608233642574,492.71014257812504,405.27708233642574Q488.56624257812507,402.5090823364257,484.563242578125,399.5400823364257Q480.56024257812504,396.5710823364257,476.7077425781251,393.4100823364257Q472.85524257812506,390.2490823364257,469.16254257812506,386.90208233642574Q465.46984257812505,383.5550823364257,461.9457425781251,380.03208233642573Q458.4217425781251,376.50808233642573,455.0748425781251,372.81508233642575Q451.72794257812507,369.12308233642574,448.56624257812507,365.2710823364257Q445.4045425781251,361.41908233642573,442.4357425781251,357.41608233642575Q439.46694257812504,353.4130823364257,436.69804257812507,349.27008233642573Q433.92924257812507,345.1260823364257,431.36704257812505,340.8520823364257Q428.80484257812503,336.57708233642575,426.45554257812506,332.18308233642574Q424.10624257812503,327.7880823364257,421.97534257812504,323.2830823364257Q419.8445425781251,318.7780823364257,417.9373425781251,314.1740823364257Q416.03014257812504,309.57008233642574,414.35114257812506,304.87808233642573Q412.67214257812503,300.1860823364257,411.2254625781251,295.4170823364257Q409.77874257812505,290.6480823364257,408.5677925781251,285.8140823364257Q407.3568325781251,280.98008233642577,406.38454257812504,276.09208233642573Q405.4122625781251,271.20508233642573,404.68099257812503,266.2750823364257Q403.94971257812506,261.34608233642575,403.46122157812505,256.3860823364257Q402.97272657812505,251.4270823364257,402.7281845781251,246.45008233642574Q402.48364257812506,241.47208233642573,402.48364257812506,236.48908233642572Q402.48364257812506,231.50608233642572,402.7281845781251,226.5280823364257Q402.97272657812505,221.55108233642574,403.46122157812505,216.59208233642573Q403.94971257812506,211.63208233642573,404.68099257812503,206.70308233642572Q405.4122625781251,201.77308233642572,406.38454257812504,196.88608233642572Q407.3568325781251,191.9980823364257,408.5677925781251,187.16408233642574Q409.77874257812505,182.33008233642573,411.2254625781251,177.56108233642573Q412.67214257812503,172.79208233642572,414.35114257812506,168.10008233642571Q416.03014257812504,163.40808233642574,417.9373425781251,158.80408233642572Q419.8445425781251,154.20008233642574,421.97534257812504,149.69508233642574Q424.10624257812503,145.19008233642572,426.45554257812506,140.7950823364257Q428.80484257812503,136.40108233642573,431.36704257812505,132.12618233642573Q433.92924257812507,127.85188233642572,436.69804257812507,123.70828233642573Q439.46694257812504,119.56478233642572,442.4357425781251,115.56208233642572Q445.4045425781251,111.55948233642573,448.56624257812507,107.70728233642572Q451.72794257812507,103.85508233642572,455.0748425781251,100.16258233642573Q458.4217425781251,96.47018233642572,461.9457425781251,92.94638233642573Q465.46984257812505,89.42258233642573,469.16254257812506,86.07598233642572Q472.85524257812506,82.72938233642572,476.7077425781251,79.56798233642573Q480.56024257812504,76.40658233642571,484.563242578125,73.43798233642573Q488.56624257812507,70.46938233642572,492.71014257812504,67.70078233642573Q496.8540425781251,64.93218233642573,501.12874257812507,62.37018233642573Q505.4036425781251,59.80818233642572,509.79864257812505,57.45908233642572Q514.193642578125,55.10988233642573,518.699642578125,52.979282336425726Q523.204642578125,50.84858233642572,527.808642578125,48.941582336425725Q532.4136425781251,47.034482336425725,537.1056425781251,45.35568233642572Q541.798642578125,43.676782336425724,546.5676425781251,42.23019233642572Q551.3366425781251,40.78359233642573,556.1706425781251,39.57273233642572Q561.005642578125,38.361872336425726,565.8936425781251,37.389672336425726Q570.781642578125,36.41746233642572,575.7116425781251,35.686252336425724Q580.641642578125,34.95504233642573,585.6006425781251,34.466582336425724Q590.560642578125,33.97812733642572,595.5386425781251,33.73360433642573Q600.516642578125,33.489082336425724,605.4996425781251,33.489082336425724Q610.483642578125,33.489082336425724,615.4616425781251,33.73360433642573Q620.439642578125,33.97812733642572,625.3986425781251,34.466582336425724Q630.358642578125,34.95504233642573,635.2886425781251,35.686252336425724Q640.2186425781251,36.41746233642572,645.106642578125,37.389672336425726Q649.9946425781251,38.361872336425726,654.828642578125,39.57273233642572Q659.6636425781251,40.78359233642573,664.4326425781251,42.23019233642572Q669.2016425781251,43.676782336425724,673.8946425781251,45.35568233642572Q678.5866425781251,47.034482336425725,683.1906425781251,48.941582336425725Q687.7956425781251,50.84858233642572,692.300642578125,52.979282336425726Q696.8056425781251,55.10988233642573,701.2016425781251,57.45908233642572Q705.596642578125,59.80818233642572,709.871642578125,62.37018233642573Q714.145642578125,64.93218233642573,718.289642578125,67.70078233642573Q722.433642578125,70.46938233642572,726.436642578125,73.43798233642573Q730.4396425781251,76.40658233642571,734.2926425781251,79.56798233642573Q738.1446425781251,82.72938233642572,741.837642578125,86.07598233642572Q745.530642578125,89.42258233642573,749.0546425781251,92.94638233642573Q752.578642578125,96.47018233642572,755.925642578125,100.16258233642573Q759.271642578125,103.85508233642572,762.433642578125,107.70728233642572Q765.5956425781251,111.55948233642573,768.5646425781251,115.56208233642572Q771.532642578125,119.56478233642572,774.301642578125,123.70828233642573Q777.070642578125,127.85188233642572,779.6326425781251,132.12618233642573Q782.194642578125,136.40108233642573,784.544642578125,140.7950823364257Q786.8936425781251,145.19008233642572,789.024642578125,149.69508233642574Q791.155642578125,154.20008233642574,793.0626425781251,158.80408233642572Q794.9696425781251,163.40808233642574,796.6486425781251,168.10008233642571Q798.327642578125,172.79208233642572,799.774642578125,177.56108233642573Q801.221642578125,182.33008233642573,802.4326425781251,187.16408233642574Q803.6436425781251,191.9980823364257,804.6156425781251,196.88608233642572Q805.587642578125,201.77308233642572,806.318642578125,206.70308233642572Q807.050642578125,211.63208233642573,807.5386425781251,216.59208233642573Q808.0276425781251,221.55108233642574,808.271642578125,226.5280823364257Q808.5166425781251,231.50608233642572,808.5166425781251,236.48908233642572Z" fill="#FFD96B" fill-opacity="1"/></g><g style="opacity:0.10000000149011612;"><path d="M771.5136218566895,236.48908233642578Q771.5136218566895,240.56408233642577,771.3136218566895,244.6340823364258Q771.1136218566894,248.70408233642578,770.7136218566894,252.76008233642577Q770.3146218566894,256.8150823364258,769.7166218566895,260.84608233642575Q769.1186218566895,264.8770823364258,768.3236218566894,268.8740823364258Q767.5286218566894,272.8710823364258,766.5386218566895,276.8240823364258Q765.5476218566894,280.7770823364258,764.3646218566894,284.6760823364258Q763.1816218566894,288.57608233642577,761.8086218566895,292.41308233642576Q760.4356218566895,296.25008233642575,758.8766218566894,300.01408233642576Q757.3166218566894,303.77908233642574,755.5746218566894,307.46308233642577Q753.8316218566895,311.1470823364258,751.9106218566894,314.7410823364258Q749.9896218566894,318.3350823364258,747.8946218566895,321.8300823364258Q745.7996218566894,325.3250823364258,743.5346218566895,328.7140823364258Q741.2706218566894,332.1020823364258,738.8436218566894,335.3750823364258Q736.4156218566894,338.6480823364258,733.8296218566895,341.7980823364258Q731.2446218566895,344.9480823364258,728.5076218566894,347.96808233642577Q725.7706218566894,350.9870823364258,722.8896218566895,353.8690823364258Q720.0076218566894,356.7500823364258,716.9876218566894,359.4870823364258Q713.9686218566894,362.22308233642576,710.8176218566895,364.8090823364258Q707.6676218566895,367.39408233642575,704.3936218566894,369.8210823364258Q701.1206218566895,372.2490823364258,697.7316218566895,374.5130823364258Q694.3436218566894,376.7770823364258,690.8476218566894,378.87208233642576Q687.3526218566894,380.9670823364258,683.7586218566894,382.8880823364258Q680.1636218566895,384.8090823364258,676.4796218566894,386.5510823364258Q672.7956218566894,388.2940823364258,669.0306218566894,389.85308233642576Q665.2656218566894,391.4120823364258,661.4286218566895,392.7850823364258Q657.5906218566895,394.15808233642576,653.6916218566895,395.34108233642576Q649.7916218566895,396.5240823364258,645.8376218566895,397.51408233642576Q641.8846218566895,398.50408233642577,637.8876218566895,399.2990823364258Q633.8906218566894,400.0940823364258,629.8596218566895,400.69208233642576Q625.8276218566895,401.29008233642577,621.7726218566895,401.6900823364258Q617.7166218566895,402.0890823364258,613.6456218566894,402.2890823364258Q609.5756218566894,402.4890823364258,605.4996218566895,402.4890823364258Q601.4246218566894,402.4890823364258,597.3536218566894,402.2890823364258Q593.2836218566895,402.0890823364258,589.2276218566894,401.6900823364258Q585.1716218566894,401.29008233642577,581.1406218566894,400.69208233642576Q577.1096218566895,400.0940823364258,573.1126218566894,399.2990823364258Q569.1156218566895,398.50408233642577,565.1616218566894,397.51408233642576Q561.2086218566894,396.5240823364258,557.3086218566895,395.34108233642576Q553.4086218566895,394.15808233642576,549.5716218566895,392.7850823364258Q545.7346218566895,391.4120823364258,541.9696218566894,389.85308233642576Q538.2042218566894,388.2940823364258,534.5201218566895,386.5510823364258Q530.8360218566895,384.8090823364258,527.2418218566895,382.8880823364258Q523.6476218566895,380.9670823364258,520.1520218566894,378.87208233642576Q516.6565218566894,376.7770823364258,513.2679218566894,374.5130823364258Q509.87932185668944,372.2490823364258,506.60592185668946,369.8210823364258Q503.3325218566895,367.39408233642575,500.18222185668947,364.8090823364258Q497.03192185668945,362.22308233642576,494.01222185668945,359.4870823364258Q490.99252185668945,356.7500823364258,488.1108218566894,353.8690823364258Q485.2290218566894,350.9870823364258,482.49222185668947,347.96808233642577Q479.7553218566895,344.9480823364258,477.1699218566895,341.7980823364258Q474.58452185668943,338.6480823364258,472.1568218566895,335.3750823364258Q469.72912185668946,332.1020823364258,467.46492185668944,328.7140823364258Q465.2007218566894,325.3250823364258,463.1056218566895,321.8300823364258Q461.01042185668945,318.3350823364258,459.08922185668945,314.7410823364258Q457.1681218566895,311.1470823364258,455.42572185668945,307.46308233642577Q453.68322185668944,303.77908233642574,452.12362185668945,300.01408233642576Q450.56402185668946,296.25008233642575,449.19109185668947,292.41308233642576Q447.81813185668943,288.57608233642577,446.63510185668946,284.6760823364258Q445.45207185668943,280.7770823364258,444.46183185668946,276.8240823364258Q443.47159185668943,272.8710823364258,442.6765218566895,268.8740823364258Q441.88145185668947,264.8770823364258,441.2834618566894,260.84608233642575Q440.6854818566895,256.8150823364258,440.28602185668944,252.76008233642577Q439.88656285668947,248.70408233642578,439.68659185668946,244.6340823364258Q439.48662185668945,240.56408233642577,439.48662185668945,236.48908233642578Q439.48662185668945,232.4140823364258,439.68659185668946,228.34408233642577Q439.88656285668947,224.27408233642578,440.28602185668944,220.2180823364258Q440.6854818566895,216.1630823364258,441.2834618566894,212.13208233642578Q441.88145185668947,208.10108233642578,442.6765218566895,204.1040823364258Q443.47159185668943,200.10708233642578,444.46183185668946,196.1540823364258Q445.45207185668943,192.20108233642577,446.63510185668946,188.30208233642577Q447.81813185668943,184.4020823364258,449.19109185668947,180.56508233642577Q450.56402185668946,176.72808233642579,452.12362185668945,172.96408233642578Q453.68322185668944,169.19878233642578,455.42572185668945,165.51488233642579Q457.1681218566895,161.83108233642577,459.08922185668945,158.23718233642578Q461.01042185668945,154.64328233642578,463.1056218566895,151.1479823364258Q465.2007218566894,147.65268233642578,467.46492185668944,144.2643823364258Q469.72912185668946,140.87608233642578,472.1568218566895,137.60298233642578Q474.58452185668943,134.32988233642578,477.1699218566895,131.17978233642577Q479.7553218566895,128.02968233642576,482.49222185668947,125.01028233642577Q485.2290218566894,121.99088233642578,488.1108218566894,119.10938233642578Q490.99252185668945,116.22788233642578,494.01222185668945,113.49118233642578Q497.03192185668945,110.75458233642578,500.18222185668947,108.16938233642578Q503.3325218566895,105.58418233642578,506.60592185668946,103.15658233642577Q509.87932185668944,100.72908233642578,513.2679218566894,98.46508233642578Q516.6565218566894,96.20118233642577,520.1520218566894,94.10608233642579Q523.6476218566895,92.01108233642577,527.2418218566895,90.09018233642578Q530.8360218566895,88.16918233642578,534.5201218566895,86.42688233642578Q538.2042218566894,84.68458233642578,541.9696218566894,83.12508233642578Q545.7346218566895,81.56558233642578,549.5716218566895,80.19276233642579Q553.4086218566895,78.81991233642579,557.3086218566895,77.63698233642577Q561.2086218566894,76.45405233642578,565.1616218566894,75.46389233642579Q569.1156218566895,74.47373233642578,573.1126218566894,73.67872233642578Q577.1096218566895,72.88372233642578,581.1406218566894,72.28578233642578Q585.1716218566894,71.68784233642577,589.2276218566894,71.28841733642578Q593.2836218566895,70.88899033642578,597.3536218566894,70.68903633642579Q601.4246218566894,70.48908233642578,605.4996218566895,70.48908233642578Q609.5756218566894,70.48908233642578,613.6456218566894,70.68903633642579Q617.7166218566895,70.88899033642578,621.7726218566895,71.28841733642578Q625.8276218566895,71.68784233642577,629.8596218566895,72.28578233642578Q633.8906218566894,72.88372233642578,637.8876218566895,73.67872233642578Q641.8846218566895,74.47373233642578,645.8376218566895,75.46389233642579Q649.7916218566895,76.45405233642578,653.6906218566894,77.63698233642577Q657.5906218566895,78.81991233642579,661.4286218566895,80.19276233642579Q665.2656218566894,81.56558233642578,669.0306218566894,83.12508233642578Q672.7956218566894,84.68458233642578,676.4796218566894,86.42688233642578Q680.1636218566895,88.16918233642578,683.7586218566894,90.09018233642578Q687.3526218566894,92.01108233642577,690.8476218566894,94.10608233642579Q694.3436218566894,96.20118233642577,697.7316218566895,98.46508233642578Q701.1206218566895,100.72908233642578,704.3936218566894,103.15658233642577Q707.6676218566895,105.58418233642578,710.8176218566895,108.16938233642578Q713.9686218566894,110.75458233642578,716.9876218566894,113.49118233642578Q720.0076218566894,116.22788233642578,722.8896218566895,119.10938233642578Q725.7706218566894,121.99088233642578,728.5076218566894,125.01028233642577Q731.2446218566895,128.02968233642576,733.8296218566895,131.17978233642577Q736.4156218566894,134.32988233642578,738.8436218566894,137.60298233642578Q741.2706218566894,140.87608233642578,743.5346218566895,144.2643823364258Q745.7996218566894,147.65268233642578,747.8946218566895,151.1479823364258Q749.9896218566894,154.6433823364258,751.9106218566894,158.23718233642578Q753.8316218566895,161.83108233642577,755.5746218566894,165.51488233642579Q757.3166218566894,169.19878233642578,758.8766218566894,172.96408233642578Q760.4356218566895,176.72808233642579,761.8086218566895,180.56508233642577Q763.1816218566894,184.4020823364258,764.3646218566894,188.30208233642577Q765.5476218566894,192.20108233642577,766.5376218566894,196.1540823364258Q767.5286218566894,200.10708233642578,768.3236218566894,204.1040823364258Q769.1186218566895,208.10108233642578,769.7166218566895,212.13208233642578Q770.3146218566894,216.1630823364258,770.7136218566894,220.2180823364258Q771.1136218566894,224.27408233642578,771.3136218566895,228.34408233642577Q771.5136218566895,232.4140823364258,771.5136218566895,236.48908233642578Z" fill="#FFD96B" fill-opacity="1"/></g><g><g><path d="M741,236.489Q741,239.815,740.837,243.137Q740.674,246.459,740.348,249.769Q740.0219999999999,253.079,739.533,256.369Q739.0450000000001,259.65999999999997,738.396,262.922Q737.7470000000001,266.18399999999997,736.9390000000001,269.40999999999997Q736.131,272.637,735.165,275.81899999999996Q734.2,279.002,733.079,282.134Q731.9590000000001,285.26599999999996,730.6859999999999,288.33799999999997Q729.413,291.411,727.991,294.418Q726.568,297.425,725,300.358Q723.432,303.29200000000003,721.722,306.144Q720.012,308.997,718.164,311.76300000000003Q716.316,314.528,714.335,317.2Q712.3530000000001,319.871,710.2429999999999,322.442Q708.133,325.014,705.899,327.478Q703.665,329.942,701.313,332.294Q698.961,334.64599999999996,696.496,336.88Q694.032,339.113,691.46,341.224Q688.889,343.334,686.217,345.315Q683.545,347.296,680.78,349.144Q678.014,350.99199999999996,675.1610000000001,352.702Q672.308,354.41200000000003,669.374,355.98Q666.441,357.548,663.434,358.97Q660.427,360.392,657.354,361.665Q654.28,362.937,651.149,364.058Q648.017,365.178,644.8340000000001,366.144Q641.65,367.109,638.424,367.918Q635.197,368.726,631.935,369.375Q628.672,370.024,625.3820000000001,370.512Q622.092,371,618.781,371.326Q615.471,371.652,612.149,371.815Q608.826,371.978,605.5,371.978Q602.174,371.978,598.851,371.815Q595.529,371.652,592.219,371.326Q588.908,371,585.6179999999999,370.512Q582.328,370.024,579.065,369.375Q575.803,368.726,572.576,367.918Q569.3495,367.109,566.1664,366.144Q562.9833,365.178,559.8514,364.058Q556.7195,362.937,553.6464,361.665Q550.5732,360.392,547.5663,358.97Q544.5593,357.548,541.6257,355.98Q538.6922,354.41200000000003,535.8391,352.702Q532.986,350.99199999999996,530.2202,349.144Q527.4545,347.296,524.7827,345.315Q522.111,343.334,519.5397,341.224Q516.9684,339.113,514.5038,336.88Q512.0391,334.64599999999996,509.687,332.294Q507.3349,329.942,505.1011,327.478Q502.8673,325.014,500.7571,322.442Q498.6469,319.871,496.6654,317.2Q494.6839,314.528,492.8359,311.76300000000003Q490.9879,308.997,489.2778,306.144Q487.5677,303.291,485.9997,300.358Q484.4316,297.425,483.0094,294.418Q481.5873,291.411,480.3143,288.33799999999997Q479.04139,285.26599999999996,477.92078,282.134Q476.80017,279.002,475.83458,275.81899999999996Q474.869,272.637,474.06076,269.40999999999997Q473.25253,266.18399999999997,472.60359,262.922Q471.95466,259.65999999999997,471.46658,256.369Q470.978508,253.079,470.652469,249.769Q470.326431,246.459,470.163216,243.137Q470,239.815,470,236.489Q470,233.163,470.163216,229.841Q470.326431,226.519,470.652469,223.209Q470.978508,219.899,471.46658,216.60899999999998Q471.95466,213.31900000000002,472.60359,210.05599999999998Q473.25253,206.79399999999998,474.06076,203.56799999999998Q474.869,200.3415,475.83458,197.1587Q476.80017,193.9758,477.92078,190.8442Q479.04139,187.7125,480.3143,184.6396Q481.5873,181.5668,483.0094,178.56Q484.4316,175.55329999999998,485.9997,172.62Q487.5677,169.6866,489.2778,166.8338Q490.9879,163.9809,492.8359,161.2154Q494.6839,158.4499,496.6654,155.7783Q498.6469,153.1068,500.7571,150.5357Q502.8673,147.9646,505.1011,145.5002Q507.3349,143.0357,509.687,140.6838Q512.0391,138.3319,514.5038,136.0983Q516.9684,133.8646,519.5397,131.7546Q522.111,129.6446,524.7827,127.6632Q527.4545,125.6819,530.2202,123.834Q532.986,121.9862,535.8391,120.2762Q538.6922,118.5663,541.6257,116.9984Q544.5593,115.4305,547.5663,114.0084Q550.5732,112.5863,553.6464,111.3135Q556.7195,110.04066,559.8514,108.92014Q562.9833,107.79962,566.1664,106.83411Q569.3495,105.86861,572.576,105.06044Q575.803,104.25227,579.065,103.60338Q582.328,102.9545,585.6179999999999,102.46646Q588.908,101.978429,592.219,101.652417Q595.529,101.326405,598.851,101.163203Q602.174,101,605.5,101Q608.826,101,612.149,101.163203Q615.471,101.326405,618.781,101.652417Q622.092,101.978429,625.3820000000001,102.46646Q628.672,102.9545,631.935,103.60338Q635.197,104.25227,638.424,105.06044Q641.65,105.86861,644.8340000000001,106.83411Q648.017,107.79962,651.149,108.92014Q654.28,110.04066,657.354,111.3135Q660.427,112.5863,663.434,114.0084Q666.441,115.4305,669.374,116.9984Q672.308,118.5663,675.1610000000001,120.2762Q678.014,121.9862,680.78,123.834Q683.545,125.6819,686.217,127.6632Q688.889,129.6446,691.46,131.7546Q694.032,133.8646,696.496,136.0983Q698.961,138.3319,701.313,140.6838Q703.665,143.0357,705.899,145.5002Q708.133,147.9646,710.2429999999999,150.5357Q712.3530000000001,153.1068,714.335,155.7783Q716.316,158.4499,718.164,161.2154Q720.012,163.9809,721.722,166.8338Q723.432,169.6866,725,172.62Q726.568,175.55329999999998,727.991,178.56Q729.413,181.5668,730.6859999999999,184.6396Q731.9590000000001,187.7125,733.079,190.8442Q734.2,193.9758,735.165,197.1587Q736.131,200.3415,736.9390000000001,203.56799999999998Q737.7470000000001,206.79399999999998,738.396,210.05599999999998Q739.0450000000001,213.31900000000002,739.533,216.60899999999998Q740.0219999999999,219.899,740.348,223.209Q740.674,226.519,740.837,229.841Q741,233.163,741,236.489Z" fill="#FFD96B" fill-opacity="1"/></g><g><path d="M701.3425657653809,140.724365234375L509.72756576538086,332.358365234375C562.6626657653809,385.219365234375,648.4075657653809,385.219365234375,701.3075657653809,332.323365234375C754.2075657653809,279.392365234375,754.2425657653808,193.655265234375,701.3425657653809,140.724365234375Z" fill="#FDC223" fill-opacity="1"/></g><g><path d="M507.00218963623047,236.48905247192383C507.00218963623047,290.88725247192383,551.0972896362305,334.9792524719238,605.4999896362305,335.01425247192384C659.9021896362304,335.01425247192384,703.9981896362304,290.9222524719238,704.0331896362304,236.52405247192382L704.0331896362304,236.48905247192383C704.0331896362304,182.09085247192382,659.9371896362304,137.99921107192384,605.5348896362304,137.96427320452383C551.1322896362304,137.92933537192383,507.00218963623047,182.05585247192383,507.00218963623047,236.48905247192383C507.00218963623047,236.45415247192383,507.00218963623047,236.45415247192383,507.00218963623047,236.48905247192383Z" fill="#F9AB10" fill-opacity="1"/></g><g><path d="M673.040079284668,164.93631395874024C634.466079284668,128.49610395874024,573.668979284668,129.05511395874024,535.8631792846679,166.85791395874023C498.09231928466795,204.66071395874025,497.498329284668,265.45221395874023,533.9414792846679,304.02421395874023C533.9414792846679,303.98921395874027,673.040079284668,164.93631395874024,673.040079284668,164.93631395874024Z" fill="#F9B721" fill-opacity="1"/></g><g><path d="M647.3955292114258,231.07840046386718C650.5106292114258,228.0514004638672,648.7995292114258,222.7430004638672,644.4998292114258,222.0849004638672L623.3085292114258,219.01400046386718C621.5974292114258,218.7508004638672,620.1057292114258,217.6979004638672,619.3598292114258,216.11850046386718L609.8391292114258,196.9469704638672C607.9087292114258,193.0424754638672,602.3366292114258,193.0424754638672,600.4061292114258,196.9469704638672L590.8854292114257,216.1624004638672C590.1396292114258,217.6979004638672,588.6478292114258,218.7946004638672,586.9367292114258,219.05780046386718L565.7454592114258,222.12880046386718C561.4457792114258,222.7430004638672,559.6908092114257,228.0514004638672,562.8497592114257,231.1223004638672L578.2057292114258,246.08230046386717C579.4342292114258,247.3106004638672,580.0046292114258,249.02160046386717,579.6975292114258,250.7326004638672L576.0559292114258,271.83440046386715C575.3100292114258,276.13370046386717,579.8291292114258,279.4240004638672,583.6900292114258,277.3621004638672L602.6437292114258,267.4034004638672C604.1793292114257,266.61380046386716,606.0221292114257,266.61380046386716,607.5577292114258,267.4034004638672L626.5114292114258,277.3621004638672C630.3723292114257,279.3802004638672,634.8914292114258,276.13370046386717,634.1455292114258,271.83440046386715L630.5039292114258,250.7326004638672C630.1968292114258,249.02160046386717,630.7672292114257,247.26680046386718,631.9957292114258,246.08230046386717L647.3955292114258,231.07840046386718Z" fill="#FFD96B" fill-opacity="1"/></g></g></g></g></svg>