<svg xmlns="http://www.w3.org/2000/svg" xmlns:xlink="http://www.w3.org/1999/xlink" fill="none" version="1.1" width="670" height="180" viewBox="0 0 670 180"><defs><linearGradient x1="-0.07395230978727341" y1="-1.0581813203458523e-15" x2="0.9657489657402039" y2="0.9395204782485962" id="master_svg0_0_2427"><stop offset="0%" stop-color="#1C150D" stop-opacity="1"/><stop offset="3.844005987048149%" stop-color="#0C0905" stop-opacity="1"/><stop offset="100%" stop-color="#271F11" stop-opacity="1"/></linearGradient><linearGradient x1="0.3978371024131775" y1="0.19980040192604065" x2="1.4374713897705078" y2="1.6327992677688599" id="master_svg1_0_2429"><stop offset="0%" stop-color="#322913" stop-opacity="1"/><stop offset="100%" stop-color="#140F09" stop-opacity="1"/></linearGradient><mask id="master_svg2_0_2425" style="mask-type:alpha" maskUnits="userSpaceOnUse"><g><path d="M44.8,-1.77737e-13L625.2,-1.27361e-14C640.881,-8.27803e-15,648.899,0.0317597,654.868,3.12531C660.005,5.78807,664.212,9.9954,666.875,15.1324C669.968,21.1005,670,29.1185,670,44.8L670,135.2C670,150.881,669.968,158.9,666.875,164.868C664.212,170.005,660.005,174.212,654.868,176.875C648.899,179.968,640.881,180,625.2,180L44.8,180C29.1185,180,21.1005,179.968,15.1324,176.875C9.9954,174.212,5.78807,170.005,3.12531,164.868C0.0317452,158.9,-9.9619e-14,150.881,-9.9619e-14,135.2L-9.9619e-14,44.8C-9.9619e-14,29.1185,0.0317442,21.1005,3.12531,15.1324C5.78807,9.9954,9.9954,5.78807,15.1324,3.12531C21.1005,0.0317442,29.1185,-1.82195e-13,44.8,-1.77737e-13" fill-rule="evenodd" fill="#FFFFFF" fill-opacity="1"/></g></mask></defs><g mask="url(#master_svg2_0_2425)"><g><path d="M44.8,-1.77737e-13L625.2,-1.27361e-14C640.881,-8.27803e-15,648.899,0.0317597,654.868,3.12531C660.005,5.78807,664.212,9.9954,666.875,15.1324C669.968,21.1005,670,29.1185,670,44.8L670,135.2C670,150.881,669.968,158.9,666.875,164.868C664.212,170.005,660.005,174.212,654.868,176.875C648.899,179.968,640.881,180,625.2,180L44.8,180C29.1185,180,21.1005,179.968,15.1324,176.875C9.9954,174.212,5.78807,170.005,3.12531,164.868C0.0317452,158.9,-9.9619e-14,150.881,-9.9619e-14,135.2L-9.9619e-14,44.8C-9.9619e-14,29.1185,0.0317442,21.1005,3.12531,15.1324C5.78807,9.9954,9.9954,5.78807,15.1324,3.12531C21.1005,0.0317442,29.1185,-1.82195e-13,44.8,-1.77737e-13" fill-rule="evenodd" fill="url(#master_svg0_0_2427)" fill-opacity="1"/><path d="M44.8,0L625.2,0C640.881,0,648.899,0.0317597,654.868,3.12531C660.005,5.78807,664.212,9.9954,666.875,15.1324C669.968,21.1005,670,29.1185,670,44.8L670,135.2C670,150.881,669.968,158.9,666.875,164.868C664.212,170.005,660.005,174.212,654.868,176.875C648.899,179.968,640.881,180,625.2,180L44.8,180C29.1185,180,21.1005,179.968,15.1324,176.875C9.9954,174.212,5.78807,170.005,3.12531,164.868C0.0317452,158.9,0,150.881,0,135.2L0,44.8C0,29.1185,0.0317442,21.1005,3.12531,15.1324C5.78807,9.9954,9.9954,5.78807,15.1324,3.12531C21.1005,0.0317442,29.1185,0,44.8,0ZM44.8,1Q31.1709,1,26.4072,1.39908Q19.523,1.97579,15.5926,4.01313Q7.96624,7.96623,4.01313,15.5926Q1.97579,19.523,1.39908,26.4072Q1,31.1709,1,44.8L0.999999,135.2Q0.999999,148.829,1.39908,153.593Q1.97578,160.477,4.01313,164.407Q7.9662,172.034,15.5926,175.987Q19.5231,178.024,26.4072,178.601Q31.1711,179,44.8,179L625.2,179Q638.829,179,643.593,178.601Q650.477,178.024,654.407,175.987Q662.034,172.034,665.987,164.407Q668.024,160.477,668.601,153.593Q669,148.83,669,135.2L669,44.8Q669,31.1702,668.601,26.4072Q668.024,19.5227,665.987,15.5926Q662.034,7.96615,654.407,4.01313Q650.477,1.9758,643.593,1.39908Q638.829,1,625.2,1L44.8,1Z" fill-rule="evenodd" fill="url(#master_svg1_0_2429)" fill-opacity="1"/></g><g transform="matrix(-1,0,0,1,1318,0)"><g><g><path d="M868.4969780967235,123.49253786315919L861.2216780967235,113.23123786315918C862.1809780967236,111.14693786315918,862.1809780967236,108.74193786315918,861.2216780967235,106.57738786315917C859.6226780967236,102.80954786315918,856.8244780967235,98.32020186315918,853.7863780967235,102.32854786315917C853.7863780967235,102.32854786315917,854.1061780967235,95.99536786315917,849.4691780967236,97.83920086315918C844.8321280967235,99.68303786315919,836.9971470967236,105.37487786315918,836.6773515967236,107.53933786315918C836.3575560967236,109.70393786315918,855.9449780967235,135.03663786315917,856.2647780967236,135.51763786315917L868.4969780967235,123.49253786315919Z" fill="#FFE3E3" fill-opacity="1"/></g><g><path d="M856.3447310546875,136.07876527404784C856.1848310546875,136.07876527404784,855.9450310546875,135.99856527404785,855.8650310546875,135.83826527404784L854.8257310546875,134.47546527404785C838.0364810546876,112.42956527404785,836.0377610546875,108.50136527404786,836.1976586846876,107.45926527404785C836.5174540546875,104.81371527404785,844.8321310546875,99.04170527404786,849.3092310546875,97.27803627404785C850.4285310546875,96.71686827404785,851.7077310546875,96.79703527404786,852.7470310546875,97.43837027404786C853.8663310546875,98.24003527404786,854.2661310546875,99.84337527404786,854.3460310546875,100.96570527404785C854.9856310546875,100.40454527404785,855.7851310546876,100.16404527404785,856.5846310546875,100.24420527404786C858.9031310546875,100.56487527404785,860.6620310546875,103.77154527404785,861.7812310546875,106.41705527404785C862.7406310546875,108.58156527404785,862.8206310546875,110.98656527404785,861.9411310546875,113.23126527404784L868.9766310546875,123.25206527404785C869.1365310546875,123.49256527404785,869.0566310546875,123.89346527404786,868.8167310546875,124.05376527404785C868.5769310546875,124.21406527404785,868.1772310546875,124.13396527404785,868.0173310546875,123.89346527404786L860.7419310546875,113.63206527404785C860.6620310546875,113.47176527404785,860.6620310546875,113.23126527404784,860.7419310546875,113.07086527404785C861.6214310546875,111.14686527404785,861.6214310546875,108.90226527404785,860.7419310546875,106.89805527404785C859.3828310546875,103.61121527404785,857.7838310546875,101.60704527404785,856.5046310546875,101.44671527404785C855.7851310546876,101.36654527404785,855.0655310546875,101.76737527404785,854.3460310546875,102.72937527404785C854.1861310546875,102.96988527404785,853.7864310546875,103.05004527404785,853.5465310546875,102.80954527404785C853.3866310546875,102.72937527404785,853.3067310546875,102.48887527404786,853.3067310546875,102.32854527404785C853.3067310546875,101.52687527404785,853.2267310546875,99.20203527404786,852.1074310546875,98.40037527404785C851.3879310546876,97.99953527404786,850.5085310546875,97.99953527404786,849.7889310546875,98.40037527404785C845.1519210546875,100.24420527404786,837.5567910546876,105.85588527404785,837.3968910546874,107.69976527404785C837.3968910546874,108.42126527404785,839.8753010546875,112.91056527404785,855.8650310546875,133.83406527404784C856.5046310546875,134.63576527404786,856.9044310546875,135.19696527404784,856.9843310546875,135.27706527404786C857.1442310546875,135.51756527404785,857.1442310546875,135.91846527404786,856.8244310546875,136.07876527404784C856.8244310546875,136.07876527404784,856.8244310546875,136.07876527404784,856.8244310546875,136.07876527404784C856.5846310546875,136.07876527404784,856.5046310546875,136.15896527404786,856.3447310546875,136.07876527404784L856.3447310546875,136.07876527404784Z" fill="#231F20" fill-opacity="1"/></g><g><path d="M1019.4403085693359,251.43884699401855C1018.880708569336,246.62884699401855,1018.001308569336,240.77664699401856,1016.882008569336,234.28314699401855C1013.7640085693359,216.40592699401856,1007.2881085693359,212.87858699401855,1007.2881085693359,212.87858699401855L935.4141485693359,207.90824699401855L931.0969085693359,251.43884699401855L1019.4403085693359,251.43884699401855L1019.4403085693359,251.43884699401855Z" fill="#231F20" fill-opacity="1"/></g><g><path d="M931.1768523881836,252.00001073913575L1019.4403103881835,252.00001073913575C1019.6002103881835,252.00001073913575,1019.6802103881836,251.91981073913576,1019.8401103881836,251.91981073913576C1020.0000103881836,251.83971073913574,1020.0000103881836,251.67931073913576,1020.0000103881836,251.51901073913575C1019.2804103881836,245.74701073913573,1018.4010103881836,239.97501073913574,1017.4416103881836,234.28311073913574C1014.3236103881836,216.40593073913575,1007.8478103881836,212.63809073913575,1007.6079103881837,212.47776073913573C1007.5280103881836,212.39759073913575,1007.4480103881835,212.39759073913575,1007.3681103881836,212.39759073913575L935.4940903881836,207.42724823913574C935.2542403881836,207.34708143913574,934.9344503881836,207.58758173913574,934.9344503881836,207.90824873913573L930.6172103881836,251.43881073913573C930.6172103881836,251.59921073913574,930.6971591881836,251.75951073913575,930.7771083881836,251.83971073913574C930.8570563881835,251.91981073913576,931.0169543881836,252.00001073913575,931.1768523881836,252.00001073913575ZM1018.8007103881836,250.87751073913574L931.8164303881836,250.87751073913574L935.9737703881835,208.54941073913574L1007.1282103881836,213.43958073913575C1007.9277103881836,213.92058073913574,1013.5241103881835,218.24961073913573,1016.3223103881836,234.36311073913575C1017.2817103881836,239.81451073913576,1018.0812103881835,245.34601073913575,1018.8007103881836,250.87751073913574Z" fill-rule="evenodd" fill="#231F20" fill-opacity="1"/></g><g><path d="M988.6600922363282,57.435159025669094C995.7754922363281,68.4981590256691,995.1358922363281,82.7678590256691,987.1409922363281,93.1895590256691C984.8224922363281,96.1556590256691,981.9443922363281,97.5986590256691,979.7856922363281,100.8855590256691C977.3872922363281,104.5732590256691,975.3085922363281,108.4212590256691,972.9900922363281,112.1088590256691C969.6321922363281,117.5602590256691,965.4748922363282,122.7710590256691,959.7185922363282,125.49675902566909C955.2414922363281,127.6612590256691,950.2046922363281,128.1422590256691,945.2478922363281,128.0620590256691C938.4521922363281,127.9819590256691,930.9370022363281,126.6190590256691,926.5398222363282,121.4082590256691C924.4611522363281,118.9230590256691,923.1819712363281,115.9568590256691,922.6223292363281,112.7502590256691C921.9827382363281,108.9022590256691,922.2225850363282,104.89385902566909,923.5017622363281,101.2061590256691C924.5411022363281,97.9995590256691,927.0195122363281,95.9151590256691,928.4585922363282,92.8688590256691C930.1375222363281,89.3415590256691,931.2568022363281,85.57365902566909,931.9763422363282,81.7256590256691C933.5752922363281,73.8693590256691,933.9750922363281,65.6922590256691,936.2135922363282,57.9962590256691C937.3328922363281,54.0681590256691,939.0117922363281,50.1399390256691,942.0498922363281,47.3341090256691C945.0879922363281,44.5282690256691,949.5650922363282,43.1654290256691,953.3226922363281,44.7687690256691C953.0827922363281,44.6885990256691,956.5205922363282,42.4439290256691,956.9203922363281,42.3637620256691C958.4393922363281,41.9629280256691,959.7984922363281,42.2835950256691,961.3175922363281,42.2835950256691C965.5548922363281,42.3637620256691,969.7920922363281,43.1654290256691,973.7895922363281,44.8489290256691C980.0255922363281,47.3341090256691,985.1422922363281,51.8234490256691,988.6600922363282,57.435159025669094L988.6600922363282,57.435159025669094Z" fill="#FFFFFF" fill-opacity="1"/></g><g><path d="M946.2072447387695,128.4629118865967L945.4077447387696,128.4629118865967C936.5334447387695,128.3828118865967,930.1375247387696,126.05791188659668,926.2999747387695,121.64871188659669C924.2213047387695,119.08341188659668,922.7822287387695,116.03711188659668,922.3025357387695,112.75021188659667C921.5829967387696,108.82201188659668,921.9027917387696,104.73351188659669,923.1819747387696,100.96571188659668C923.8215647387696,99.20201188659668,924.7809447387696,97.51851188659668,925.9801847387695,95.99541188659668C926.7796747387696,94.87301188659669,927.4992047387695,93.75071188659669,928.1387947387695,92.54821188659668C929.7377747387695,89.02081188659668,930.9370047387695,85.33321188659667,931.6565447387695,81.48521188659669C932.2961447387695,78.35871188659668,932.7758447387695,75.15201188659668,933.1755447387695,72.02551188659668C933.7352447387696,67.21551188659669,934.6146447387696,62.405511886596685,935.8938447387695,57.675611886596684C937.3329447387696,52.70531188659668,939.2516447387695,49.25811188659668,941.8900447387696,46.77294188659668C945.1679447387695,43.72660188659668,949.8049447387696,42.60426188659668,953.4026447387695,43.96710188659668C954.5219447387695,43.08526188659668,955.7211447387696,42.28359488659668,957.0003447387695,41.64226088659668C958.1196447387696,41.40176011659668,959.3188447387695,41.32159328659668,960.4381447387696,41.48192688659668C960.8378447387695,41.48192688659668,961.1576447387695,41.56209388659668,961.5574447387695,41.56209388659668C965.8746447387696,41.64226088659668,970.1918447387695,42.52409188659668,974.1893447387695,44.12743188659668C980.3453447387695,46.853101886596676,985.5420447387695,51.34244188659668,989.1397447387695,57.11441188659668L989.1397447387695,57.11441188659668C996.3351447387695,68.33781188659668,995.6955447387695,82.92821188659667,987.6207447387695,93.43001188659667C986.5813447387695,94.71271188659668,985.4621447387696,95.83501188659667,984.1829447387695,96.87721188659668C982.7438447387696,98.07971188659667,981.3847447387695,99.44251188659668,980.2654447387695,101.04591188659668C978.9063447387696,103.13021188659667,977.5471447387695,105.37491188659668,976.3479447387696,107.53941188659668C975.4685447387695,109.14271188659669,974.5091447387696,110.74601188659668,973.5497447387695,112.26921188659668C970.8314447387695,116.59821188659669,966.5142447387695,122.77111188659669,960.1183447387696,125.81741188659667C956.3607447387695,127.66121188659667,951.9635447387695,128.4629118865967,946.2072447387695,128.4629118865967L946.2072447387695,128.4629118865967Z" fill="#000000" fill-opacity="1"/></g><g><path d="M936.853262940979,103.85171318054199C936.853262940979,103.85171318054199,925.020762940979,121.88921318054199,896.638962940979,145.137613180542C892.241762940979,139.125113180542,868.496962940979,118.762713180542,868.496962940979,118.762713180542L849.469162940979,130.306813180542C849.469162940979,130.306813180542,884.486762940979,177.44481318054198,900.396562940979,176.082013180542C916.3063629409789,174.719213180542,943.728862940979,131.910113180542,943.728862940979,131.910113180542L936.853262940979,103.85171318054199Z" fill="#93EF78" fill-opacity="1"/></g><g><path d="M1012.8845497314453,211.59559187316893C1012.8845497314453,211.59559187316893,953.8023497314454,221.61659187316894,932.4560497314453,209.51159187316892C932.4560497314453,209.51159187316892,930.7771097314453,191.07319187316895,928.2986897314453,184.01849187316895C926.9395597314453,180.17049187316894,926.8596197314453,182.09449187316895,925.1007397314453,178.48699187316896C922.1426397314453,172.63489187316895,920.7035568314453,166.14129187316894,920.7835056014453,159.56769187316894C920.9434037314453,151.15009187316895,922.7022797314453,141.61029187316893,924.4611497314453,133.35309187316895C925.6603797314453,127.74139187316895,927.4192597314453,122.29009187316895,929.7377697314453,116.99909187316895C932.3760497314453,110.90639187316894,933.7352497314453,104.25255187316894,939.9712497314454,102.32854187316894C950.0447497314453,99.28220187316894,960.1183497314453,99.28220187316894,970.5916497314453,97.83920207316895C975.6283497314453,97.11770087316894,997.7742497314453,106.89805187316895,1003.0508497314453,116.75859187316894C1008.3274497314453,126.61909187316894,1012.8845497314453,211.59559187316893,1012.8845497314453,211.59559187316893L1012.8845497314453,211.59559187316893Z" fill="#93EF78" fill-opacity="1"/></g><g><path d="M933.895116730957,171.99354042663575C933.655276730957,171.99354042663575,933.495376730957,171.83314042663574,933.415426730957,171.67284042663573C923.102026730957,146.01944042663575,931.736496730957,114.59407142663574,931.8164467309571,114.27340342663574C931.896396730957,113.95273642663574,932.216196730957,113.79240282663574,932.535986730957,113.87256962663574C932.855786730957,113.95273642663574,933.015686730957,114.27340342663574,932.935736730957,114.59407142663574C932.855786730957,114.91474042663575,924.301256730957,146.01944042663575,934.454756730957,171.27204042663573C934.534706730957,171.59264042663574,934.454756730957,171.91334042663573,934.134966730957,171.99354042663575C934.134966730957,171.99354042663575,934.134966730957,171.99354042663575,934.134966730957,171.99354042663575C934.055016730957,171.99354042663575,933.975066730957,171.99354042663575,933.895116730957,171.99354042663575L933.895116730957,171.99354042663575Z" fill="#231F20" fill-opacity="1"/></g><g><path d="M969.3924281494141,116.75856570983886C969.3924281494141,116.75856570983886,956.9203281494141,143.85495570983886,953.8823281494141,155.55935570983888C950.844258149414,167.26365570983887,943.808768149414,186.98475570983885,943.808768149414,186.98475570983885C943.808768149414,186.98475570983885,937.173018149414,145.13765570983887,948.765598149414,109.78405570983887L969.3924281494141,116.75856570983886L969.3924281494141,116.75856570983886Z" fill="#231F20" fill-opacity="1"/></g><g><path d="M943.3290804418946,187.1450029510498C943.3290804418946,187.3855029510498,943.5689204418945,187.5459029510498,943.8087704418946,187.5459029510498C944.0486104418945,187.6260029510498,944.2085104418945,187.46570295104982,944.2884604418946,187.22520295104982C944.3684104418945,186.98470295104983,951.3239604418945,167.26370295104982,954.3619904418945,155.7196029510498C957.4000904418946,144.1756029510498,969.7121904418946,117.23957295104981,969.8720904418946,116.99907295104981L969.8720904418946,116.9189129510498C969.9519904418945,116.67841295104981,969.7920904418945,116.3577429510498,969.5522904418946,116.2775729510498L948.9254904418946,109.3832280510498C948.7655904418946,109.30306125104981,948.6057004418946,109.30306125104981,948.5257504418945,109.3832280510498C948.4458004418946,109.4633949510498,948.2859004418946,109.54356195104981,948.2859004418946,109.7038949510498C936.7732704418945,144.7368029510498,943.2491304418945,186.7442029510498,943.3290804418946,187.1450029510498ZM944.0485504418946,184.9807029510498C942.9292704418946,176.3227029510498,939.2516304418946,140.8088029510498,949.0853304418945,110.5057229510498L968.7526904418945,117.0794029510498C967.0737904418945,120.84720295104981,956.2806904418945,144.7369029510498,953.4824904418946,155.47930295104982C951.0041004418945,164.93900295104982,945.8873804418945,179.7699029510498,944.0485504418946,184.9807029510498Z" fill-rule="evenodd" fill="#231F20" fill-opacity="1"/></g><g><path d="M948.685647890625,99.20208401184081L948.365847890625,114.51388401184082C948.365847890625,114.51388401184082,949.325237890625,126.45878401184082,956.920387890625,125.25628401184082C963.396187890625,124.29428401184082,969.232487890625,120.60658401184082,972.910087890625,115.15528401184082L976.587787890625,85.01248401184083C976.747687890625,83.72988401184082,975.468487890625,79.64138401184081,977.467187890625,68.65848401184081C972.590387890625,67.69648401184082,968.033287890625,65.61218401184082,964.115787890625,62.56580401184082C962.516787890625,61.44346401184082,953.882287890625,55.99212401184082,954.921687890625,53.66728401184082C952.363287890625,59.43929401184082,949.485087890625,65.37168401184081,944.448357890625,69.05928401184082C943.648867890625,69.46018401184082,943.009277890625,70.10148401184082,942.449637890625,70.82298401184082C942.129837890625,71.38418401184082,941.969947890625,72.02548401184082,941.889997890625,72.58668401184082C940.690767890625,78.83968401184082,939.251684890625,84.93238401184082,939.491531690625,91.42588401184082C939.891275890625,99.84338401184081,948.685647890625,99.20208401184081,948.685647890625,99.20208401184081L948.685647890625,99.20208401184081Z" fill="#FFE3E3" fill-opacity="1"/></g><g><path d="M952.2034229125976,124.53474415588379C953.2427229125976,125.33644415588378,954.6018229125976,125.81744415588379,955.9610229125976,125.81744415588379C956.2808229125976,125.81744415588379,956.6805229125977,125.81744415588379,957.0802229125976,125.89754415588379C963.7160229125976,124.85544415588379,969.6322229125976,121.08754415588379,973.3898229125977,115.47594415588378C973.4698229125977,115.47594415588378,973.4698229125977,115.39574415588379,973.4698229125977,115.3155441558838C977.1474229125977,85.4935441558838,977.1474229125977,85.17284415588378,977.1474229125977,85.17284415588378C977.1474229125977,84.69184415588379,977.1474229125977,84.13064415588379,977.0675229125976,83.64964415588379C977.0633229125976,83.59514415588379,977.0589229125976,83.5389441558838,977.0544229125976,83.48114415588378C976.8879229125977,81.33184415588379,976.5476229125976,76.93794415588378,978.0268229125977,68.8188441558838C978.0268229125977,68.65844415588379,978.0268229125977,68.4981441558838,977.9469229125976,68.41794415588379C977.8669229125976,68.25764415588378,977.7870229125976,68.17744415588379,977.6271229125977,68.17744415588379C972.8302229125976,67.29564415588379,968.2731229125976,65.2113441558838,964.4355229125977,62.24513415588379C964.1957229125976,62.00463415588379,963.7959229125977,61.76413415588379,963.3163229125977,61.44346415588379C957.6399229125976,57.43512415588379,954.9216229125976,54.94995415588379,955.4013229125976,53.907785155883786C955.5612229125977,53.58711715588379,955.4813229125976,53.34661715588379,955.1615229125977,53.18628335588379C954.8417229125977,53.02594975588379,954.5219229125977,53.18628335588379,954.4419229125976,53.42678415588379C952.0435229125976,58.87812415588379,949.2453229125977,64.97084415588378,944.1285629125977,68.65844415588379L943.8887129125976,68.8188441558838C943.1691729125977,69.29984415588379,942.5295829125977,69.86094415588379,942.0498929125977,70.58244415588379C941.7301029125977,71.14364415588379,941.4902529125976,71.78494415588379,941.4103029125977,72.50644415588378L940.9306129125977,75.1519441558838C940.8965629125977,75.33054415588379,940.8625129125977,75.5089441558838,940.8285029125976,75.6870441558838C939.8245489125976,80.94524415588378,938.8597989125976,85.99804415588379,939.0917872125976,91.4258441558838C939.0917872125976,93.67054415588379,939.9712239125977,95.91524415588378,941.6501529125976,97.43834415588378C943.4889729125977,98.96154415588379,945.8074929125977,99.7632441558838,948.2059529125977,99.7632441558838L947.9661029125976,114.51394415588379C947.9661029125976,114.83454415588379,948.5257529125977,121.64874415588379,952.2034229125976,124.53474415588379ZM949.0054229125976,98.8813441558838C948.9254729125977,98.80114415588379,948.8455229125976,98.72104415588379,948.6856229125976,98.72104415588379C948.6856229125976,98.70804415588378,948.5826829125976,98.70344415588379,948.4002929125977,98.69534415588379C947.4575529125976,98.6535441558838,944.3922929125977,98.5174441558838,942.4496129125977,96.63664415588379C941.0105429125977,95.27384415588378,940.2110529125977,93.34984415588379,940.2110529125977,91.34564415588379C939.9816909125976,86.13264415588378,940.9220929125977,81.21294415588379,941.9136429125977,76.02564415588378C941.9589829125977,75.78844415588378,942.0044229125976,75.55064415588379,942.0498729125976,75.31224415588379L942.5295629125976,72.66674415588379C942.6095129125977,72.1056441558838,942.7694129125977,71.54444415588378,943.0092629125977,71.06344415588379C943.4090029125977,70.50224415588379,943.8886929125977,70.02124415588379,944.5282829125977,69.62044415588379L944.7681329125977,69.4601441558838C949.6450229125977,66.01294415588379,952.5231229125976,60.32109415588379,954.7617229125976,55.35074415588379C955.7211229125977,57.19458415588379,958.7592229125977,59.51942415588379,962.7566229125977,62.24509415588379C963.1563229125976,62.56576415588379,963.5561229125976,62.80626415588379,963.7959229125977,62.96659415588379C967.7134229125977,65.9327441558838,972.1906229125976,68.01714415588378,976.9075229125976,69.05924415588379C975.5113229125976,76.9930441558838,975.8460229125976,81.3043441558838,976.0132229125977,83.45764415588378C976.0184229125977,83.52364415588379,976.0233229125977,83.5876441558838,976.0281229125976,83.64964415588379C976.1080229125977,84.05044415588378,976.1080229125977,84.53144415588379,976.1080229125977,84.93234415588378C976.1080229125977,85.09264415588379,972.6702229125976,112.99064415588379,972.4304229125977,114.99484415588378C968.7528229125977,120.20574415588379,963.1563229125976,123.8132441558838,956.8404229125977,124.77524415588378C955.4013229125976,125.0157441558838,953.8823229125976,124.61484415588379,952.7630229125976,123.73304415588379C949.4051229125977,121.08754415588379,948.8455229125976,114.51384415588379,948.8455229125976,114.51384415588379L949.1653229125976,99.2821441558838C949.1653229125976,99.12184415588379,949.0853229125977,98.96154415588379,949.0054229125976,98.8813441558838Z" fill-rule="evenodd" fill="#231F20" fill-opacity="1"/></g><g><path d="M948.525749206543,109.6237001800537C952.523189206543,109.14270018005371,956.3607292065429,107.61960018005371,959.6386492065429,105.2145501800537C964.915249206543,101.28638018005371,964.995249206543,96.39620018005371,964.995249206543,96.39620018005371C964.995249206543,96.39620018005371,956.600579206543,100.24421018005371,948.685647206543,99.1218701800537L948.525749206543,109.6237001800537L948.525749206543,109.6237001800537Z" fill="#231F20" fill-opacity="1"/></g><g><path d="M948.0460586547852,109.62370896911621C948.0460586547852,109.8642089691162,948.2859046547851,110.10470896911622,948.5257516547852,110.10470896911622C952.6830886547851,109.62370896911621,956.6005786547852,108.1005089691162,959.9584586547852,105.61538896911621C965.3949586547851,101.6070489691162,965.5548586547851,96.71686796911621,965.5548586547851,96.47636796911621C965.5548586547851,96.3160339691162,965.4748586547852,96.15570096911621,965.3149586547852,96.07553396911621C965.1550586547852,95.91520006911621,964.9952586547852,95.91520006911621,964.8353586547852,95.99536686911621C964.7553586547851,96.07553396911621,956.4406886547852,99.7632089691162,948.7655976547852,98.72103896911621C948.6057006547852,98.64086896911621,948.4458026547852,98.72103896911621,948.3658536547852,98.80120896911622C948.2859046547851,98.9615389691162,948.2059566547852,99.04170896911621,948.2059566547852,99.20203896911622L948.0460586547852,109.62370896911621ZM949.0054096547851,109.06280896911622L949.1653086547851,99.76341896911622C955.6411586547852,100.48491896911621,962.1969586547851,98.16007896911621,964.3555586547851,97.19807896911621C963.7159586547851,100.3245889691162,961.8771586547851,103.05025896911621,959.3187586547851,104.8139289691162C956.2807486547852,107.05860896911621,952.7630086547852,108.5016089691162,949.0054096547851,109.06280896911622Z" fill-rule="evenodd" fill="#231F20" fill-opacity="1"/></g><g><path d="M957.0802739257813,69.62048149108887C957.0802739257813,69.62048149108887,950.2046749257812,76.99583149108886,951.2440089257813,78.67933149108887C952.2833439257812,80.36288149108887,956.2008339257812,79.96198149108886,956.2008339257812,79.96198149108886L957.0802739257813,69.62048149108887Z" fill="#FFE3E3" fill-opacity="1"/></g><g transform="matrix(0.1994035542011261,-0.9799174666404724,0.9799174666404724,0.1994035542011261,685.5009685405436,986.4048055989037)"><ellipse cx="948.2660672664642" cy="74.640669465065" rx="1.8436048030853271" ry="0.9594732522964478" fill="#231F20" fill-opacity="1"/></g><g transform="matrix(0.1994035542011261,-0.9799174666404724,0.9799174666404724,0.1994035542011261,697.0782701578029,1002.8963773193)"><ellipse cx="964.1474301815033" cy="75.80123770236969" rx="1.8436048030853271" ry="0.9594732522964478" fill="#231F20" fill-opacity="1"/></g><g><path d="M972.2705535888672,75.15199183166504C973.9494835888672,72.26598553166504,977.9469235888672,71.78498483166504,980.8250735888672,72.90731983166503C982.7438535888672,73.54865183166504,984.1029535888672,75.31232183166505,984.2628535888672,77.31649183166503C984.3428535888672,78.51900183166504,984.1029535888672,79.80166183166504,983.7032535888671,80.92400183166504C982.9836535888672,83.08851183166504,981.9443635888672,85.09271183166504,980.5052835888672,86.85631183166504C979.8656935888672,87.81831183166504,978.9862535888672,88.53981183166503,977.9469235888672,89.02081183166504C976.5877935888672,89.58201183166504,975.1487135888672,89.18121183166504,974.1093735888672,88.13901183166504L972.2705535888672,75.15199183166504Z" fill="#FFE3E3" fill-opacity="1"/></g><g><path d="M976.6677370214844,89.74237746582031C975.5484570214844,89.74237746582031,974.5091270214843,89.26137746582032,973.7895870214844,88.4596774658203C973.6296870214844,88.21917746582031,973.6296870214844,87.89847746582032,973.7895870214844,87.73817746582031C973.9494770214844,87.57787746582031,974.2692770214844,87.49767746582032,974.5091270214843,87.73817746582031C974.5091270214843,87.73817746582031,974.5091270214843,87.73817746582031,974.5091270214843,87.73817746582031C975.3086070214844,88.61997746582031,976.5877870214844,88.94067746582031,977.7870270214844,88.53987746582031C978.7464070214844,88.05887746582032,979.5458970214844,87.41747746582031,980.1055370214843,86.53567746582031C981.4646670214844,84.85217746582032,982.5040470214843,82.8479774658203,983.2235470214844,80.7636674658203C983.6232470214844,79.64133746582031,983.7831470214844,78.51899746582032,983.7831470214844,77.39665746582031C983.7032470214843,75.55282746582031,982.4240470214844,73.94948746582031,980.6651770214844,73.38831746582031C977.9469170214844,72.34615246582031,974.2692770214844,72.90731746582031,972.7502480214844,75.47265746582032C972.5903510214844,75.71315746582032,972.2705550214844,75.71315746582032,972.0307090214844,75.55282746582031C971.8708113214843,75.39248746582031,971.7908625214844,75.15198746582031,971.8708113214843,74.91148746582031C973.6296870214844,71.86515176582031,977.9469170214844,71.22381746582032,980.9849770214844,72.42631946582031C983.1435470214843,73.14781746582031,984.5826470214844,75.0718274658203,984.7425470214844,77.3164974658203C984.8225470214844,78.59916746582032,984.5826470214844,79.88183746582031,984.1829470214843,81.08433746582031C983.4633470214844,83.32897746582032,982.3441470214843,85.33317746582031,980.9050270214843,87.17697746582031C980.1854870214844,88.13897746582032,979.2261070214844,88.94067746582031,978.1867670214843,89.50187746582031C977.7070770214843,89.66217746582032,977.2273870214843,89.74237746582031,976.6677370214844,89.74237746582031L976.6677370214844,89.74237746582031Z" fill="#231F20" fill-opacity="1"/></g><g><path d="M916.9459863220214,116.35777324523926L927.9788863220215,135.27707324523925L909.5906863220215,142.33177324523925C906.7124863220215,128.54307324523927,907.9916863220215,120.28587324523926,904.9536463220215,119.00327324523926C900.5564563220215,117.15937324523927,895.1998863220215,114.51387324523925,895.1998863220215,109.94439324523925C895.1998863220215,107.13855324523925,895.4397323220214,104.17238324523926,897.1986063220215,102.00787324523925C897.8381963220215,101.20620824523925,898.6376863220215,100.40454004523926,899.5970663220215,100.32437324523926C900.1567163220215,100.32437324523926,900.7163563220215,100.48470724523926,901.1960463220215,100.72520724523926C904.1541563220214,101.92771324523926,909.2708863220215,104.41288324523926,909.5906863220215,104.33271324523926C910.8698863220214,104.01204324523925,911.9091863220215,103.61121324523926,911.9891863220215,102.24837324523926C914.9472863220215,106.33688324523926,913.9878863220215,112.18907324523926,916.9459863220214,116.35777324523926L916.9459863220214,116.35777324523926Z" fill="#FFE3E3" fill-opacity="1"/></g><g><path d="M909.3508435302734,142.81277425231934C909.4307435302734,142.89297425231933,909.5107435302734,142.89297425231933,909.5906435302734,142.89297425231933Q909.5906435302734,142.86277425231933,909.6057435302735,142.84777425231934Q909.6508435302734,142.80287425231933,909.8305435302734,142.89297425231933L928.2187435302734,135.83827425231934C928.3786435302734,135.75807425231935,928.4586435302734,135.67797425231933,928.5385435302734,135.51757425231932C928.5385435302734,135.35727425231934,928.5385435302734,135.19697425231934,928.4586435302734,135.03657425231933L917.4256435302734,116.11727425231933C916.1464435302735,114.19327425231934,915.6667435302734,111.86837425231934,915.1870435302734,109.46339425231933C914.6274435302735,106.89805425231934,914.0678435302734,104.25255425231934,912.4688435302735,102.08804425231934C912.3888435302734,101.92771425231933,912.2289435302735,101.84754425231934,912.0690435302735,101.84754425231934C911.7492435302735,101.76737425231934,911.4295435302735,102.00787425231934,911.4295435302735,102.32854425231933C911.2696435302735,103.13021425231933,910.7899435302735,103.53104425231933,909.5107435302734,103.85171425231934C909.1109435302734,103.69138425231934,907.5120435302734,103.05004425231934,906.1528435302735,102.40871425231934C904.5538935302734,101.68721425231934,902.7150735302735,100.80537625231933,901.2759935302735,100.24420825231934C900.7163535302734,100.00370825231934,900.1567135302735,99.84337425231934,899.5171235302735,99.84337425231934C898.3178935302734,99.84337425231934,897.3585035302734,100.80537625231933,896.7189135302734,101.68721425231934C894.8800895302734,103.93188425231934,894.6402435302734,106.97822425231934,894.6402435302734,109.94437425231934C894.6402435302734,114.67427425231934,899.7569635302734,117.39987425231934,904.7138435302735,119.48427425231934C906.1528435302735,120.12557425231934,906.4726435302734,123.25207425231933,906.9523435302734,128.06207425231935C907.3521435302735,132.87207425231935,908.0716435302735,137.68207425231935,909.0310435302735,142.41197425231934C909.1109435302734,142.57227425231935,909.1909435302734,142.73257425231935,909.3508435302734,142.81277425231934ZM897.5983335302734,102.32836425231933C898.0780235302734,101.60686425231934,898.7975635302735,101.04570425231934,899.6769935302734,100.88536425231933C900.0767435302735,100.96553425231933,900.5564335302735,101.04570425231934,900.9561835302734,101.36636425231933C902.3153135302734,101.92753425231933,904.1541335302734,102.72920425231933,905.7531435302734,103.45070425231934C906.3553435302734,103.71146425231933,906.8568435302734,103.92993425231934,907.2759435302735,104.11254425231934C909.3052435302734,104.99662425231934,909.4055435302735,105.04031425231933,909.6706435302734,104.97387425231933C910.6299435302734,104.89370425231934,911.5094435302734,104.41270425231933,912.1490435302734,103.61103425231934C913.1084435302735,105.45487425231934,913.7479435302735,107.53921425231934,914.0677435302734,109.62355425231934C914.5474435302734,112.02857425231933,915.0271435302734,114.59387425231934,916.4662435302735,116.67827425231934L927.0994435302734,134.95627425231933L909.9904435302734,141.52997425231933C909.1109435302734,137.04057425231935,908.4713435302734,132.47107425231934,908.0716435302735,127.90157425231934C907.5119435302735,122.53037425231933,907.1921435302735,119.32377425231934,905.1135435302734,118.44187425231934C900.4764835302734,116.51787425231933,895.7595035302735,114.03277425231934,895.7595035302735,109.94417425231933C895.7595035302735,107.13837425231934,895.9993535302734,104.33254425231934,897.5983335302734,102.32836425231933Z" fill-rule="evenodd" fill="#231F20" fill-opacity="1"/></g><g><path d="M974.1893487670899,132.0704382684326C961.7972487670899,148.66492826843262,950.0447487670898,166.22152826843262,950.0447487670898,166.22152826843262L926.7796487670898,128.70342826843262L904.3140487670898,135.83827826843262C904.3140487670898,135.83827826843262,924.7809487670899,214.16122826843264,947.0866487670899,208.46942826843264C947.0866487670899,208.46942826843264,981.1448487670898,193.55842826843264,1001.6917487670898,157.0825282684326L974.1893487670899,132.0704382684326Z" fill="#93EF78" fill-opacity="1"/></g><g><path d="M944.7681636352539,209.2710656463623C923.1020636352539,209.2710656463623,904.4739486352539,139.0449656463623,903.6744607352539,135.9986056463623C903.5945118352539,135.7581056463623,903.7544096352539,135.4374456463623,903.9942556352539,135.3572756463623L926.4598636352539,128.2224282463623C926.6997636352539,128.14226134636232,926.9395636352539,128.2224282463623,927.0994636352539,128.46292864636231L949.9648636352539,165.25946564636232C952.2833636352539,161.8123656463623,962.8365636352539,146.3401656463623,973.6296636352539,131.7497656463623C973.7895636352539,131.5092656463623,974.1093636352539,131.4291056463623,974.4291636352539,131.58943564636232C974.4291636352539,131.58943564636232,974.4291636352539,131.58943564636232,974.4291636352539,131.58943564636232C974.6690636352539,131.7497656463623,974.7489636352539,132.1506056463623,974.5890636352539,132.3911056463623C974.5890636352539,132.3911056463623,974.5890636352539,132.3911056463623,974.5890636352539,132.3911056463623C962.4368636352539,148.9054656463623,950.6044636352539,166.4619656463623,950.4445636352539,166.6223656463623C950.364563635254,166.78266564636232,950.1247636352539,166.8628656463623,949.9648636352539,166.8628656463623C949.8049636352539,166.8628656463623,949.5650636352539,166.78266564636232,949.4851636352539,166.6223656463623L926.4598636352539,129.4249256463623L904.9536436352539,136.2391056463623C906.7924636352539,142.9731656463623,926.2999636352539,213.1190656463623,946.9267636352539,207.9082656463623C947.1666636352539,207.8280656463623,980.984963635254,192.6765656463623,1001.2120636352539,156.7618656463623C1001.3719636352539,156.5213656463623,1001.6916636352539,156.3609656463623,1002.0114636352539,156.5213656463623C1002.2513636352539,156.68166564636232,1002.4112636352539,157.0023656463623,1002.2513636352539,157.32296564636232C981.8643636352539,193.5583656463623,947.7262636352539,208.7900656463623,947.4064636352539,208.9503656463623C946.4470636352539,209.19096564636232,945.6475636352538,209.2710656463623,944.7681636352539,209.2710656463623L944.7681636352539,209.2710656463623Z" fill="#231F20" fill-opacity="1"/></g><g><path d="M978.2667314697266,91.34569343933106C975.6284014697266,93.75069343933106,973.1499914697266,95.67469343933105,971.2312214697265,98.80120343933106C969.4723414697265,101.68725343933106,968.2731114697266,104.89385343933105,967.7134704697265,108.26085343933106C967.3137254697266,110.42535343933105,967.3936747697265,112.67005343933106,968.0332654697265,114.83455343933105C968.6728514697265,116.99905343933105,970.2718314697265,118.68255343933106,972.4304514697266,119.48425343933106C974.9888114697266,120.28595343933105,977.8669314697265,119.08345343933105,979.7857314697266,117.07925343933105C982.9037314697266,113.79235343933105,983.6233314697265,108.66175343933105,985.0623314697266,104.49305343933105C986.6613314697265,99.60287343933105,988.1004314697266,94.63253343933106,989.6194314697266,89.74235343933105L978.2667314697266,91.34569343933106Z" fill="#000000" fill-opacity="1"/></g><g><path d="M974.0294184472656,120.12559472351074C973.3898284472656,120.12559472351074,972.7502384472656,120.04539472351074,972.1905984472656,119.88509472351075C969.9520284472657,119.08339472351074,968.1931584472657,117.23959472351075,967.4736184472656,114.91469472351073C966.8340279472657,112.75019472351075,966.6741304472656,110.34519472351074,967.1538234472656,108.10059472351074C967.7134644472657,104.65339472351074,968.9126984472656,101.44669472351075,970.7515184472657,98.48053472351074C972.3504984472656,96.15570472351074,974.2692684472656,93.99119472351074,976.4278884472657,92.22752472351074L977.7870084472656,90.94485472351074C978.0269084472657,90.78452472351074,978.3466084472657,90.78452472351074,978.5065084472657,91.02502472351074C978.6664084472657,91.18535472351074,978.6664084472657,91.50602472351075,978.5065084472657,91.66635472351074C978.0269084472657,92.06719472351074,977.5472084472656,92.54819472351075,977.0675084472656,92.94902472351075C974.9088584472656,94.71269472351074,973.0700384472656,96.71686472351074,971.5510084472656,98.96153472351074C969.7921384472656,101.76739472351075,968.5928984472656,104.89389472351074,968.1132084472656,108.18069472351074C967.7134644472657,110.26509472351074,967.7934134472656,112.42959472351075,968.3530584472657,114.51389472351075C968.9926484472657,116.51809472351074,970.4317284472656,118.12139472351075,972.4304484472656,118.84289472351074C974.9088584472656,119.64459472351075,977.6271084472656,118.28169472351074,979.2261084472656,116.59819472351074C981.5446084472657,114.19319472351074,982.5040084472656,110.66589472351075,983.4634084472656,107.37909472351075C983.7832084472657,106.33689472351074,984.1030084472657,105.21459472351074,984.4228084472657,104.25259472351074C985.5420084472656,100.88549472351075,986.5814084472656,97.35820472351074,987.6207084472657,93.99119472351074C988.1004084472656,92.46802472351074,988.5001084472656,91.02502472351074,988.9798084472657,89.50185372351075C989.0598084472656,89.26135372351074,989.2996084472657,89.02085282351074,989.6194084472656,89.10101962351074C989.8593084472657,89.18118642351074,990.0991084472656,89.42168672351075,990.0192084472657,89.74235372351075C990.0192084472657,89.74235372351075,990.0192084472657,89.74235372351075,990.0192084472657,89.82252072351075C989.5395084472656,91.34569472351075,989.1397084472657,92.78869472351074,988.6600084472657,94.31186472351074C987.6207084472657,97.67886472351074,986.5814084472656,101.20619472351075,985.4621084472657,104.57319472351074C985.1423084472656,105.53519472351074,984.8225084472656,106.57739472351074,984.5027084472656,107.69969472351075C983.5433084472656,111.14689472351074,982.5040084472656,114.75439472351074,980.1055084472656,117.39989472351074C978.5065084472657,119.08339472351074,976.3479384472656,120.04539472351074,974.0294184472656,120.12559472351074L974.0294184472656,120.12559472351074Z" fill="#231F20" fill-opacity="1"/></g><g><path d="M948.5257516420899,84.93234443664551L955.6412006420899,84.93234443664551C955.6412006420899,84.93234443664551,954.8417106420899,96.7970444366455,951.1640606420898,95.0333444366455C947.4864166420898,93.26969443664551,948.5257516420899,84.93234443664551,948.5257516420899,84.93234443664551Z" fill="#FFFFFF" fill-opacity="1"/></g><g><path d="M951.8836014990235,95.67467576599121C951.5638014990234,95.67467576599121,951.2440114990235,95.59457576599121,950.9242114990234,95.43417576599121C947.0067234990235,93.51019576599121,947.9661094990234,85.2530107659912,947.9661094990234,84.85217676599122C947.9661094990234,84.61167576599121,948.2059554990234,84.45134256599121,948.4458024990234,84.37117576599121L955.5612514990235,84.37117576599121C955.7211414990235,84.37117576599121,955.8010914990234,84.45134256599121,955.9609914990234,84.53150976599122C956.0409414990235,84.61167576599121,956.1208914990234,84.77200976599121,956.1208914990234,84.9323437659912C956.0409414990235,85.81417576599121,955.4013514990235,93.8308657659912,952.8429914990235,95.35407576599121C952.5231914990235,95.59457576599121,952.2034014990235,95.67467576599121,951.8836014990235,95.67467576599121L951.8836014990235,95.67467576599121Z" fill="#231F20" fill-opacity="1"/></g><g><path d="M852.5871635134888,117.07923699035645C852.3473235134887,117.07923699035645,852.1874235134887,116.99903699035644,852.1074735134888,116.75853699035645C850.9881935134888,114.83453699035644,850.6683935134888,113.07093699035644,851.0681435134887,111.54772699035644C849.3892135134888,112.34943699035645,847.4704435134888,113.07093699035644,846.1113135134888,112.67003699035645C845.3917735134887,112.42953699035644,844.8321315134888,111.86843699035644,844.5922855134887,111.14689699035645C843.2331535134888,107.13855699035645,852.5072135134888,102.32854399035645,853.5465535134888,101.76737619035644C853.7864035134887,101.60704259035644,854.1861435134888,101.76737619035644,854.2660935134887,102.00787699035645C854.4259935134887,102.24837699035645,854.2660935134887,102.64921099035645,854.0262435134888,102.72937699035644C854.0262435134888,102.72937699035644,854.0262435134888,102.72937699035644,854.0262435134888,102.72937699035644C850.3486035134888,104.57321699035644,844.8321315134888,108.42122699035644,845.6316235134888,110.74605699035645C845.7115635134887,111.14689699035645,846.0313635134887,111.46755699035644,846.4311035134888,111.54772699035644C847.8701835134888,112.02873699035645,850.6683935134888,110.58572699035645,852.4272735134888,109.46338699035644C852.7470635134888,109.14272699035645,853.1468135134887,108.90222699035644,853.6265035134887,108.66172699035644C853.8663435134888,108.58155699035645,854.1861435134888,108.66172699035644,854.3460435134888,108.90222699035644C854.5058935134888,109.14272699035645,854.4259935134887,109.46338699035644,854.1861435134888,109.62372699035645C854.0262435134888,109.70388699035644,853.7064535134888,109.94439699035644,853.1468135134887,110.34522699035645C852.7470635134888,110.74605699035645,852.4272735134888,111.22705699035644,852.2673735134888,111.70803699035645C851.8676235134888,112.91053699035645,852.1874235134887,114.43373699035645,853.1468135134887,116.11723699035645C853.3067035134887,116.35773699035644,853.2267535134888,116.75853699035645,852.9869135134887,116.91893699035644C852.9869135134887,116.91893699035644,852.9869135134887,116.91893699035644,852.9869135134887,116.91893699035644C852.8270135134887,117.07923699035645,852.6671135134887,117.07923699035645,852.5871635134888,117.07923699035645L852.5871635134888,117.07923699035645Z" fill="#231F20" fill-opacity="1"/></g></g><g><g><path d="M698.6057425183105,205.02224384277343L694.1286125183105,251.43886384277343L773.8376125183106,251.43886384277343L769.4404125183105,196.04356384277344L698.6057425183105,205.02224384277343Z" fill="#231F20" fill-opacity="1"/></g><g><path d="M773.8375735412598,252.00003071289063L694.1286155412598,252.00003071289063C693.9687175412598,252.00003071289063,693.8088195412597,251.91983071289062,693.7288715412598,251.83963071289062C693.6489223412598,251.75953071289064,693.5689735412598,251.59913071289063,693.5689735412598,251.43883071289062L698.0461035412598,205.10242071289062C698.0461035412598,204.86191071289062,698.2859535412598,204.62141071289062,698.5258035412597,204.62141071289062L769.3604735412598,195.64273071289062C769.5203735412598,195.64273071289062,769.6802735412598,195.64273071289062,769.7601735412597,195.72289751289063C769.8401735412598,195.80306471289063,769.9200735412597,195.9633977128906,770.0000735412598,196.12373171289062L774.3972735412598,251.43883071289062C774.3972735412598,251.59913071289063,774.3972735412598,251.75953071289064,774.2373735412598,251.83963071289062C774.1573735412597,251.83963071289062,773.9974735412598,251.91983071289062,773.8375735412598,252.00003071289063L773.8375735412598,252.00003071289063Z" fill="#231F20" fill-opacity="1"/></g><g><path d="M779.6738514208985,98.40032507581711L796.5430314208984,93.8308250758171L788.3882314208985,42.20342507581711C788.3882314208985,42.20342507581711,780.2334914208984,35.70992507581711,780.7931314208985,32.74372507581711C781.3527714208984,29.77752507581711,785.8299114208984,28.33456507581711,785.8299114208984,28.33456507581711C785.8299114208984,28.33456507581711,783.3514914208985,21.360055075817108,785.4301614208985,20.71871507581711C787.5088314208984,20.07738507581711,797.4225314208984,17.111215075817107,798.8615314208985,19.67655507581711C800.3006314208984,22.24188507581711,805.5772314208984,33.14462507581711,803.6585314208984,40.038925075817104C803.6585314208984,40.038925075817104,830.7611314208984,100.16402507581711,820.0480314208985,108.34102507581711C809.3348314208985,116.5180250758171,777.3553314208984,128.94362507581712,777.3553314208984,128.94362507581712L779.6738514208985,98.40032507581711Z" fill="#FFE3E3" fill-opacity="1"/></g><g><path d="M777.3553344438477,129.505C777.0355384438476,129.505,776.7956924438477,129.265,776.7956924438477,128.94400000000002C776.7956924438477,128.703,776.9555904438477,128.543,777.1154874438477,128.463C777.4352834438477,128.38299999999998,809.1749924438477,116.1172,819.7281924438477,108.0204C822.6063924438477,105.7757,824.2052924438476,97.5987,815.3309924438477,71.38419999999999C809.9744924438477,55.5111,803.1787924438477,40.5199,803.0988924438476,40.3596C803.0188924438477,40.1993,803.0188924438477,40.1191,803.0988924438476,39.9588C804.9376924438477,33.3049,799.8209924438477,22.56256,798.3018924438477,19.99722C797.6622924438476,18.955049,793.9846924438476,18.714549,785.5101124438477,21.27989C785.4301624438476,21.36005,785.2702724438476,21.44022,785.2702724438476,21.52039C784.7106224438477,22.64272,785.5900624438476,26.17006,786.3096024438477,28.094099999999997C786.3895524438476,28.2544,786.3895524438476,28.4147,786.3096024438477,28.4949C786.2296524438476,28.6552,786.1497024438477,28.7354,785.9898024438477,28.8156C785.9898024438477,28.8156,781.9124124438476,30.2586,781.3527724438477,32.8239C780.9530324438476,34.7479,785.6700124438477,39.237300000000005,788.7080924438477,41.7224C788.7879924438477,41.8026,788.8679924438477,41.962900000000005,788.9478924438476,42.043099999999995L797.1026924438477,93.5904C797.1825924438476,93.911,796.9427924438477,94.1515,796.7029924438476,94.2317L779.9136924438477,98.8012C779.5939024438477,98.8814,779.2741024438477,98.721,779.1941524438477,98.4004C779.1142124438477,98.0797,779.2741024438477,97.8392,779.5939024438477,97.759L795.9034924438477,93.2697L787.8285924438477,42.3638C786.3895524438476,41.2414,779.5939024438477,35.5496,780.2334924438477,32.5032C780.7931324438476,29.9379,783.8311924438476,28.4147,785.1103724438476,27.853569999999998C784.6306724438476,26.41056,783.4314424438477,22.56256,784.3108824438476,20.87905C784.4707824438476,20.47822,784.8705224438477,20.23772,785.2702724438476,20.077379999999998C793.5049924438476,17.592213,798.2219924438476,17.351713,799.3412924438477,19.27572C801.1800924438477,22.48239,806.0569924438477,32.9842,804.2980924438476,39.8786C806.2168924438477,44.2076,831.2407924438477,100.4045,820.4477924438477,108.6617C809.6546924438477,116.9189,778.8743624438476,128.784,777.5951804438477,129.265C777.5152314438477,129.505,777.4352834438477,129.505,777.3553344438477,129.505L777.3553344438477,129.505Z" fill="#231F20" fill-opacity="1"/></g><g><path d="M746.4950935351562,93.34985754394532C746.4950935351562,93.34985754394532,789.1877735351562,93.10935754394531,791.1864735351562,91.42585754394531L804.0582735351562,122.37025754394531C804.0582735351562,122.37025754394531,757.5280735351563,141.3697575439453,745.1359635351563,137.68215754394532C731.8644535351563,122.04955754394531,746.4950935351562,93.34985754394532,746.4950935351562,93.34985754394532L746.4950935351562,93.34985754394532Z" fill="#93EF78" fill-opacity="1"/></g><g><path d="M755.2894878234863,93.26969793945312C752.9709878234863,90.86468793945312,713.4761878234863,91.66635793945312,702.6031878234863,103.37073793945312C691.7301478234863,115.07503793945313,693.0093298234864,187.6260379394531,693.9687158234864,209.99263793945312L775.9162878234863,213.5196379394531C775.9162878234863,213.43963793945312,767.9213878234864,106.49723793945313,755.2894878234863,93.26969793945312L755.2894878234863,93.26969793945312Z" fill="#93EF78" fill-opacity="1"/></g><g><path d="M775.9162135253906,195.0815807373047C775.6764135253907,195.0815807373047,775.4366135253906,194.8410807373047,775.3566135253906,194.60058073730468C775.2767135253906,193.8790807373047,763.6041435253907,119.08338073730468,762.0851135253906,106.49721573730469C762.0851135253906,106.17654773730469,762.2450115253906,105.93604753730469,762.5648065253906,105.85588073730469C762.5648065253906,105.85588073730469,762.5648065253906,105.85588073730469,762.5648065253906,105.85588073730469C762.8846015253906,105.85588073730469,763.1244435253906,106.0162147373047,763.2043935253906,106.3368817373047C763.2043935253906,106.3368817373047,763.2043935253906,106.3368817373047,763.2043935253906,106.3368817373047C764.7234235253907,118.92308073730469,776.3160135253906,193.6385807373047,776.4759135253906,194.44018073730467C776.5558135253906,194.7608807373047,776.3160135253906,195.0013807373047,775.9962135253907,195.0815807373047L775.9162135253906,195.0815807373047L775.9162135253906,195.0815807373047Z" fill="#231F20" fill-opacity="1"/></g><g><path d="M702.603188204956,104.37071228027344L675.580488204956,145.97731228027345L711.237688204956,163.29331228027343C711.237688204956,163.29331228027343,728.8263882049561,129.30261228027342,723.389888204956,117.11721228027343C717.953388204956,104.93188028027343,702.603188204956,104.37071228027344,702.603188204956,104.37071228027344L702.603188204956,104.37071228027344Z" fill="#93EF78" fill-opacity="1"/></g><g><path d="M677.4192626272202,145.859130859375C677.4192626272202,145.859130859375,658.7112876272201,176.402730859375,659.5907245272201,182.335030859375C660.4701616272201,188.267330859375,704.5219626272202,208.228930859375,735.4621626272201,206.144530859375C735.4621626272201,206.144530859375,757.0483626272202,210.393430859375,761.1256626272202,201.975930859375C765.2026626272202,193.558430859375,760.7256626272201,192.756730859375,757.2881626272201,191.474030859375C753.8503626272202,190.191430859375,748.8135626272201,188.187230859375,748.8135626272201,188.187230859375L750.0927626272202,184.178830859375C747.6943626272201,184.980530859375,737.7007626272201,190.592230859375,737.7007626272201,190.592230859375L694.2085626272202,173.596830859375L704.7617626272202,159.888330859375L677.4192626272202,145.859130859375Z" fill="#FFE3E3" fill-opacity="1"/></g><g><path d="M746.7349,207.7478779296875C742.8974000000001,207.7478779296875,739.1398,207.3470779296875,735.3822,206.70577792968749C722.0308,207.58757792968748,704.0423,204.3007779296875,686.0538,197.8072779296875C673.3419,193.0773779296875,659.510776,186.1830779296875,659.0310828,182.4151779296875C658.151646,176.4026779296875,676.2201,146.8211279296875,676.9396,145.6186269296875C677.0995,145.3781261596875,677.4993,145.2979593296875,677.7391,145.4582929296875C677.979,145.6186269296875,678.0589,145.9392939296875,677.899,146.1797939296875C672.7023,154.5973079296875,659.430827,177.6051779296875,660.15037,182.2548779296875C660.86991,186.9045779296875,699.1654,205.7437779296875,730.5053,205.7437779296875C732.1842,205.7437779296875,733.7832,205.6635779296875,735.3822,205.58337792968752L735.5421,205.58337792968752C735.782,205.58337792968752,756.7284999999999,209.6718779296875,760.646,201.7353779296875C762.165,198.6890779296875,762.565,196.5245779296875,761.925,195.0013779296875C761.2860000000001,193.4781779296875,759.527,192.8368779296875,757.8478,192.2756779296875L757.1283,192.0351779296875C753.7704,190.7525779296875,748.7337,188.7483779296875,748.6537,188.7483779296875C748.4139,188.6681779296875,748.254,188.3475779296875,748.3339,188.0268779296875L749.2133,185.2210779296875C745.8555,186.8243779296875,738.1005,191.07317792968752,738.0205,191.1533779296875C737.8606,191.2335779296875,737.7007,191.2335779296875,737.5408,191.1533779296875L693.9687,174.1579779296875C693.8088,174.0778779296875,693.6489,173.9976779296875,693.6489,173.7571779296875C693.569,173.5968779296875,693.6489,173.4364779296875,693.7289,173.2761779296875L704.2821,159.5676779296875C704.522,159.3271779296875,704.8418,159.3271779296875,705.0816,159.4874779296875C705.3214,159.6477779296875,705.3214,159.9684779296875,705.1616,160.2089779296875L695.088,173.2761779296875L737.7007,189.9508779296875C739.2197,189.0690779296875,747.6943,184.4193779296875,749.9329,183.6176779296875C750.1727,183.5375779296875,750.3326,183.6176779296875,750.4925000000001,183.7780779296875C750.6524,183.9383779296875,750.7324,184.1788779296875,750.6524,184.3391779296875L749.5331,187.8665779296875C750.8923,188.4276779296875,754.7298,189.9508779296875,757.4481,190.9930779296875L758.1676,191.2335779296875C760.006,191.8748779296875,762.085,192.5963779296875,762.885,194.60057792968752C763.604,196.36417792968751,763.204,198.8493779296875,761.525,202.2163779296875C759.447,206.6255779296875,752.8111,207.7478779296875,746.7349,207.7478779296875L746.7349,207.7478779296875Z" fill="#231F20" fill-opacity="1"/></g><g><path d="M730.0256297851563,89.34155159912109C725.1487297851562,89.42165159912109,720.6716297851563,88.8605515991211,716.2744397851562,86.3753515991211C714.3556597851563,85.41335159912109,712.7566897851563,83.8901515991211,711.6373997851563,82.0463515991211C710.6780197851563,80.12235159912109,710.9178697851562,77.47685159912109,712.5967897851563,76.1139515991211C710.2782697851562,75.4726515991211,708.3594997851562,73.78915159912108,707.5600147851562,71.54445159912109C706.7605264851562,69.2998515991211,706.5206797851563,66.8948515991211,706.9204237851562,64.5699515991211C707.4001167851562,61.523651599121095,708.7592497851563,58.3169515991211,711.6373997851563,57.194651599121094C709.7985797851562,55.3507515991211,707.7998597851563,53.10615159912109,708.0397097851562,50.46065159912109C708.1996097851562,49.177951599121094,708.7592497851563,47.895251599121096,709.5587397851563,46.85315159912109C710.9178697851562,44.6885515991211,712.5168397851562,42.6042515991211,714.2757197851563,40.7604515991211C715.2350997851562,39.718251599121096,716.5142797851563,38.676051599121095,717.7934297851563,39.15705159912109C717.2338297851562,34.18674159912109,720.1919297851563,29.21640159912109,724.4292297851563,26.651061599121093C726.5079297851562,25.368395599121094,729.0662297851562,24.807227599121095,731.4647297851562,25.127894699121093C732.2642297851562,25.208061599121095,738.8999297851562,27.853571599121093,738.6601297851563,28.013901599121095C741.6182297851562,25.849396599121093,747.2945297851562,24.887394599121095,750.6524297851563,26.490731599121094C753.6105297851562,28.013901599121095,755.6092297851562,31.060241599121092,755.6892297851563,34.427241599121096C758.5673297851563,34.908251599121094,761.3655297851562,36.0305515991211,763.7640297851563,37.71405159912109C766.0825297851562,39.47775159912109,767.8414297851563,42.203451599121095,767.9213297851562,45.08945159912109C768.0013297851563,47.975451599121094,766.0825297851562,51.02175159912109,763.2044297851562,51.66315159912109C766.3224297851563,53.02595159912109,767.7614297851562,57.1144515991211,766.5622297851562,60.321151599121094C765.2031297851563,63.527751599121096,762.0851297851563,65.61215159912109,758.5673297851563,65.61215159912109C758.0876297851562,65.5319515991211,757.6079297851562,65.61215159912109,757.1283297851562,65.7724515991211C756.6486297851562,66.09315159912109,756.3288297851562,66.5741515991211,756.0090297851563,67.0551515991211C754.9696297851563,68.6584515991211,753.1308297851563,68.89895159912109,751.8516297851562,70.10145159912109C750.1727297851562,71.7048515991211,748.8136297851563,74.3503515991211,747.4544297851562,76.2743515991211C746.0154297851562,78.1983515991211,744.4963297851563,80.12235159912109,742.8174297851563,81.88605159912109C741.0585297851562,83.8901515991211,739.5395297851562,86.4555515991211,737.3809297851562,88.05885159912108C735.4621297851562,89.5018515991211,733.8631297851563,88.9406515991211,731.6246297851562,89.0208515991211L730.0256297851563,89.34155159912109L730.0256297851563,89.34155159912109Z" fill="#000000" fill-opacity="1"/></g><g><path d="M716.0345878295899,86.85631771774291C720.5916378295899,89.42171771774292,725.1487378295899,89.90271771774292,729.1462378295898,89.90271771774292L730.0256378295899,89.90271771774292L731.7845378295898,89.82251771774293L733.3035378295898,89.82251771774293C733.3931378295898,89.82251771774293,733.4824378295898,89.82281771774292,733.5714378295899,89.82311771774292C734.9928378295898,89.82751771774292,736.3559378295898,89.83171771774292,737.8606378295898,88.70021771774292C739.3796378295898,87.57781771774292,740.6588378295899,86.13481771774292,741.6981378295899,84.61171771774292C742.3377378295899,83.81001771774292,742.8974378295899,83.08851771774292,743.4570378295898,82.44721771774292C745.1359378295898,80.60331771774293,746.7349378295899,78.75951771774291,748.1740378295898,76.75531771774291C748.6537378295899,76.11401771774291,749.0534378295898,75.39251771774292,749.5331378295898,74.67101771774293C750.3326378295899,73.22801771774292,751.3719378295898,71.86511771774292,752.4912378295899,70.66261771774292C752.9709378295898,70.18161771774291,753.5305378295899,69.86101771774293,754.1701378295899,69.54031771774292C755.2095378295899,69.13951771774292,756.0889378295899,68.41801771774291,756.7285378295899,67.53611771774291C756.7285378295899,67.45601771774292,756.8084378295898,67.29561771774291,756.8884378295899,67.21551771774293C757.0483378295899,66.81461771774292,757.2881378295898,66.57411771774292,757.6079378295899,66.33361771774292C757.9277378295899,66.25351771774292,758.2475378295899,66.25351771774292,758.5673378295899,66.25351771774292L758.8072378295899,66.25351771774292C762.4848378295899,66.25351771774292,765.8427378295899,64.08901771774292,767.2817378295898,60.64181771774292C768.4010378295899,57.43511771774292,767.3617378295899,53.907817717742915,764.7234378295898,51.90361771774292C767.2018378295899,50.62091771774292,768.7208378295899,47.97541771774292,768.6409378295898,45.16961771774292C768.4010378295899,41.96291771774292,766.8021378295898,39.15711771774292,764.2437378295898,37.313217717742916C761.9252378295898,35.70991771774292,759.2069378295898,34.58757771774292,756.4087378295899,34.02640771774292C756.0889378295899,30.65940771774292,754.0902378295898,27.61306771774292,751.0521378295898,26.08989771774292C747.4544378295899,24.40639271774292,741.7781378295898,25.36839471774292,738.7400378295898,27.45272771774292C736.9811378295899,26.41056771774292,731.7045378295899,24.72706031774292,731.6246378295898,24.72706031774292C728.9863378295898,24.40639271774292,726.4279378295898,24.96756071774292,724.1893378295898,26.33039771774292C719.8721378295899,28.81556771774292,717.2338378295898,33.54540771774292,717.3137378295899,38.59591771774292C716.2744378295898,38.67611771774292,715.1551478295899,39.23721771774292,713.9559178295898,40.51991771774292C712.1970478295898,42.44391771774292,710.5980678295898,44.44811771774292,709.1589878295898,46.69281771774292C708.3594978295898,47.81511771774292,707.7998578295899,49.177917717742915,707.5600178295898,50.540817717742925C707.3201678295899,53.10611771774292,708.9990978295898,55.27061771774292,710.7579678295898,57.11441771774292C707.6399678295899,58.79791771774292,706.6805768295899,62.80631771774292,706.4407308295898,64.57001771774293C705.9610378295898,67.05511771774292,706.2008843295898,69.54031771774292,707.0803208295898,71.86511771774292C707.9597578295899,73.94951771774292,709.5587378295899,75.55281771774293,711.6374078295898,76.43461771774292C710.4381678295898,78.19831771774292,710.2782778295898,80.36281771774293,711.2376578295898,82.28681771774292Q712.4368878295899,84.81211771774292,716.0345878295899,86.85631771774291ZM714.6754078295899,41.24141771774292C715.6347978295898,40.279417717742916,716.5142378295899,39.71831771774292,717.2337378295898,39.71831771774292C717.2679378295899,39.71831771774292,717.3021378295898,39.72191771774292,717.3339378295899,39.72531771774292C717.4510378295898,39.73791771774292,717.5364378295899,39.74701771774292,717.4736378295898,39.55791771774292C717.7134378295898,39.63811771774292,717.8733378295899,39.55791771774292,718.0332378295899,39.47781771774292C718.1132378295898,39.39761771774292,718.1931378295899,39.15711771774292,718.1931378295899,38.99681771774292C717.7934378295898,34.42725771774292,720.3517378295899,29.53708771774292,724.5890378295899,27.05191771774292C726.5877378295899,25.84940771774292,728.9862378295899,25.36841071774292,731.3047378295898,25.60891071774292C733.7032378295899,26.33040771774292,735.9418378295899,27.21224771774292,738.1803378295898,28.25441771774292C738.4202378295898,28.49491771774292,738.7400378295898,28.49491771774292,738.9798378295899,28.33458771774292C741.6981378295899,26.33040771774292,747.2145378295899,25.28824371774292,750.4125378295898,26.89157771774292C753.2107378295898,28.33458771774292,754.9696378295898,31.14041771774292,755.1295378295898,34.26692771774292C755.1295378295898,34.58759771774292,755.3693378295899,34.74791771774292,755.6092378295898,34.82811771774292C758.4074378295899,35.30911771774292,761.1256378295899,36.43141771774292,763.4442378295898,38.03481771774292C765.6827378295899,39.63811771774292,767.2017378295899,42.20341771774292,767.3616378295899,45.00931771774292C767.3616378295899,47.81511771774292,765.5228378295899,50.46061771774292,763.0444378295898,51.02181771774292C762.8046378295899,51.10191771774292,762.6447378295899,51.26231771774292,762.6447378295899,51.50281771774292C762.6447378295899,51.74331771774292,762.7246378295898,51.98381771774292,762.9645378295899,52.063917717742925C765.7627378295898,53.266417717742925,767.2017378295899,57.03431771774292,766.0825378295898,60.00051771774292C764.8033378295899,62.96661771774292,761.8452378295898,64.89061771774291,758.6472378295898,64.89061771774291L758.4873378295898,64.89061771774291C757.9277378295899,64.81051771774293,757.4480378295898,64.89061771774291,756.9683378295898,65.13111771774291C756.4886378295898,65.45181771774293,756.0889378295899,65.93281771774292,755.8490378295899,66.41381771774292L755.6891378295899,66.73451771774292C755.1295378295898,67.45601771774292,754.4099378295898,68.01711771774292,753.5305378295899,68.41801771774291C752.8110378295898,68.73861771774293,752.1714378295899,69.13951771774292,751.6117378295899,69.70061771774292C750.4125378295898,70.90311771774293,749.3732378295898,72.34621771774292,748.4937378295898,73.86931771774292C748.0140378295898,74.59081771774292,747.6143378295899,75.23221771774291,747.1346378295898,75.87351771774291C745.6955378295899,77.79751771774292,744.1765378295898,79.72151771774293,742.5775378295898,81.48521771774293C741.9379378295898,82.20671771774292,741.3783378295899,83.00831771774293,740.8186378295899,83.72981771774292C739.7793378295898,85.25301771774292,738.5801378295898,86.53571771774293,737.2209378295898,87.65801771774292C735.9418378295899,88.62001771774291,734.8225378295898,88.62001771774291,733.3834378295899,88.53981771774292L731.7844378295898,88.53981771774292L730.1055378295898,88.62001771774291C726.1081378295899,88.62001771774291,721.3111378295898,88.37951771774291,716.5941378295898,85.73401771774292C714.3556178295898,84.53151771774293,712.9165378295899,83.24881771774292,712.1969978295898,81.64551771774292C711.4774578295899,80.04221771774291,711.4774578295899,77.71731771774293,712.9964878295898,76.43471771774293C713.1563878295898,76.27431771774292,713.2363278295899,76.11401771774291,713.1563878295898,75.87351771774291C713.1563878295898,75.71321771774292,712.9964878295898,75.55281771774293,712.7566378295899,75.47271771774291C710.5980178295898,74.91151771774292,708.9190978295899,73.38831771774292,708.1196078295899,71.30401771774292C707.3201178295899,69.21961771774292,707.1602218295899,66.89481771774291,707.5599678295898,64.65011771774292C707.7998078295899,63.04681771774292,708.6792478295898,58.95831771774292,711.8771978295898,57.75581771774292C712.0370978295898,57.67561771774292,712.1969978295898,57.51531771774292,712.1969978295898,57.35501771774292C712.1969978295898,57.19461771774292,712.1969978295898,57.03431771774292,712.0370978295898,56.87401771774292C710.2782278295898,55.110317717742916,708.3594578295898,52.94581771774292,708.5992978295899,50.62091771774292C708.8391478295898,49.41841771774292,709.3188378295898,48.21591771774292,710.0383778295899,47.25391771774292C711.3975078295898,45.08941771774292,712.9165378295899,43.085317717742925,714.6754078295899,41.24141771774292Z" fill-rule="evenodd" fill="#231F20" fill-opacity="1"/></g><g><path d="M754.8897516357422,45.810935322924806C755.5293516357422,46.1316026229248,756.0089516357422,46.692770622924805,756.3287516357422,47.33410662292481C757.6079516357422,49.498606622924804,758.0077516357422,52.224276622924805,758.4074516357422,54.709456622924804C759.0470516357422,59.75996662292481,759.3668516357421,64.8104666229248,759.3668516357421,69.8609666229248C759.5267516357421,76.51486662292481,759.5267516357421,83.24886662292481,759.4467516357422,89.90266662292481C759.3668516357421,94.1515666229248,748.4138516357422,94.6325666229248,746.4950516357421,93.43006662292481L748.7336516357421,110.1047666229248C748.7336516357421,110.1047666229248,743.5369516357422,111.7080666229248,734.5827216357421,107.94026662292481C725.6284496357422,104.17236662292481,725.4685516357422,102.0880666229248,725.4685516357422,102.0880666229248L725.5485004357422,82.7678666229248C725.5485004357422,82.7678666229248,732.7438916357422,82.6074666229248,736.7413516357421,73.7891666229248C737.3809516357422,72.4263666229248,737.5408516357422,70.2617666229248,738.5002516357422,69.05926662292481C739.6194516357422,67.6162666229248,741.2984516357421,67.21546662292481,742.0979516357422,65.2914666229248C742.8174516357421,63.5277666229248,742.6575516357422,61.4434666229248,741.6182516357422,59.840166622924805C741.3783516357422,59.5194666229248,741.1385516357421,59.0384666229248,741.2984516357421,58.717766622924806C741.4583516357421,58.55746662292481,741.6182516357422,58.39716662292481,741.8580516357422,58.3169666229248C744.3364516357422,56.873966622924804,745.2159516357422,53.747446622924805,743.7768516357422,51.2622766229248C743.7768516357422,51.2622766229248,743.7768516357422,51.1821166229248,743.7768516357422,51.1821166229248C746.4950516357421,51.10194662292481,748.2539516357422,48.21593662292481,749.5331516357422,45.730768522924805C749.1334516357422,46.532436622924806,753.8503516357422,45.810935322924806,753.9303516357422,45.810935322924806C754.2501516357422,45.6506016229248,754.5699516357422,45.730768522924805,754.8897516357422,45.810935322924806L754.8897516357422,45.810935322924806Z" fill="#FFE3E3" fill-opacity="1"/></g><g><path d="M734.4228210839843,108.3410658996582C737.9405610839843,109.94436589965821,741.7781610839844,110.8262658996582,745.6156610839844,110.9063658996582C746.7349610839843,110.9063658996582,747.8542610839844,110.8262658996582,748.8935610839844,110.50556589965821C749.1333610839844,110.4253658996582,749.2932610839844,110.1047658996582,749.2932610839844,109.8642658996582L747.1346610839844,94.15156589965821C749.6130610839843,94.7126658996582,754.8897610839844,94.4721658996582,757.7678610839844,92.8688658996582C759.6066610839844,91.9068658996582,760.0064610839844,90.7043658996582,760.0064610839844,89.8225658996582C760.0863610839843,83.16866589965821,760.0863610839843,76.4346658996582,759.9264610839843,69.7807658996582L759.9264610839843,68.3377658996582C759.8465610839844,63.7682658996582,759.5267610839844,59.198765899658206,758.9670610839844,54.6292858996582C758.5673610839843,52.304445899658205,758.1676610839844,49.4184458996582,756.8084610839844,47.0936058996582C756.4886610839844,46.3721058996582,755.8490610839843,45.73076689965821,755.1295610839844,45.3299328996582C754.8097610839844,45.1695998996582,754.4100610839844,45.089432699658204,754.0102610839843,45.089432699658204L753.6904610839844,45.089432699658204Q751.8916610839843,45.45018389965821,750.0927610839843,45.3299328996582Q750.0927610839843,45.209682899658205,749.8529610839844,45.089432699658204C749.6130610839843,44.9290990996582,749.2932610839844,45.0092658996582,749.1333610839844,45.3299328996582C747.9341610839843,47.654775899658205,746.3351610839844,50.380445899658206,743.8567610839843,50.460605899658205C743.6169610839844,50.460605899658205,743.4570610839844,50.6209458996582,743.3770610839844,50.781275899658205C743.2971610839844,50.9416058996582,743.2971610839844,51.1821158996582,743.3770610839844,51.3424458996582L743.3770610839844,51.422615899658204C744.6562610839844,53.5871158996582,743.8567610839843,56.3929658996582,741.6182610839844,57.6756658996582C741.2984610839844,57.7557658996582,740.9786610839843,57.996265899658205,740.8187610839843,58.3169658996582C740.5788610839844,58.8781658996582,740.7387610839844,59.5194658996582,741.1385610839844,60.0004658996582C742.0978610839844,61.5236658996582,742.2577610839844,63.3674658996582,741.6182610839844,64.9707658996582C741.2184610839844,65.8526658996582,740.5788610839844,66.5741658996582,739.7793610839843,67.0551658996582C739.1397610839844,67.4559658996582,738.5801610839844,67.9369658996582,738.1004610839843,68.5782658996582C737.5408610839844,69.54026589965821,737.1410610839844,70.5824658996582,736.9012610839844,71.6246658996582C736.8212610839844,72.2659658996582,736.5814610839843,72.82716589965821,736.3415610839844,73.4684658996582C732.5840010839844,81.8058658996582,725.8682980839844,82.1264658996582,725.6284520839844,82.1264658996582C725.3086560839844,82.1264658996582,725.0688098839844,82.3669658996582,725.0688098839844,82.68766589965821L724.9888610839844,102.00786589965821C724.9888610839844,102.4086658996582,725.6284520839844,104.57316589965819,734.4228210839843,108.3410658996582ZM734.9024910839844,107.29896589965821C726.8276610839844,103.8517658996582,726.1081210839844,101.9277658996582,726.1081210839844,101.9277658996582L726.1880710839844,83.2488658996582C727.9469510839843,83.0083658996582,733.7832110839844,81.7256658996582,737.3009610839844,74.0296658996582C737.5407610839844,73.3081658996582,737.7806610839843,72.6668658996582,737.9405610839843,71.9453658996582C738.1004610839843,70.9833658996582,738.4202610839844,70.1015658996582,738.8999610839844,69.2998658996582C739.2996610839843,68.8188658996582,739.7793610839843,68.4180658996582,740.3390610839843,68.01716589965821C741.2983610839843,67.37586589965821,742.0978610839844,66.49406589965821,742.5775610839844,65.4518658996582C743.2971610839844,63.447665899658205,743.1372610839844,61.2029658996582,742.0179610839843,59.4393658996582C741.7780610839844,59.038465899658206,741.7780610839844,58.958365899658205,741.7780610839844,58.8781658996582C741.8580610839844,58.7979658996582,741.9379610839844,58.7979658996582,742.0978610839844,58.71786589965821C743.4570610839844,57.9963658996582,744.4163610839844,56.7136658996582,744.8161610839844,55.19046589965821C745.2158610839844,53.9879958996582,745.1359610839844,52.705325899658206,744.6562610839844,51.502825899658205C746.9747610839844,51.021825899658204,748.5737610839843,48.6969858996582,749.6930610839844,46.532485899658205Q751.7317610839843,46.652735899658204,753.7704610839844,46.291975899658205L753.8503610839844,46.291975899658205C754.0901610839844,46.291975899658205,754.4099610839844,46.3721458996582,754.6498610839844,46.4523158996582C755.1295610839844,46.612645899658204,755.3693610839844,47.01348589965821,755.8490610839843,47.734985899658206C757.0483610839843,49.81931589965821,757.5279610839843,52.6251558996582,757.8477610839843,54.8698358996582C758.4074610839843,59.3591658996582,758.7272610839843,63.84846589965821,758.7272610839843,68.4180658996582L758.8071610839844,69.8610658996582C758.9670610839844,76.5148658996582,759.0470610839843,83.16876589965821,758.8871610839843,89.8225658996582C758.8871610839843,90.62426589965821,758.3274610839844,91.3457658996582,757.2881610839844,91.9068658996582C754.2500610839844,93.5903658996582,748.0940610839843,93.6705658996582,746.8148610839844,92.8688658996582C746.5750610839843,92.7887658996582,746.3351610839844,92.7887658996582,746.1752610839844,92.8688658996582C746.0153610839843,93.02926589965821,745.9354610839844,93.1895658996582,745.9354610839844,93.4300658996582L748.1739610839844,109.5435658996582C746.7349610839843,109.7840658996582,742.0179610839843,110.3452658996582,734.9024910839844,107.29896589965821Z" fill-rule="evenodd" fill="#231F20" fill-opacity="1"/></g><g><path d="M741.0585244506836,70.02131307250977C740.9786244506836,68.33781307250976,740.0192244506836,66.89480307250976,739.0598544506836,65.53197307250977C738.3403144506835,64.40963307250976,737.5408244506835,63.44763307250977,736.5814444506836,62.565803072509766C735.5421044506836,61.68396407250977,734.2629244506836,61.36329607250977,732.9837444506836,61.60379677250977C731.8644544506836,61.924464072509764,730.9850244506836,62.72613307250977,730.4253804506836,63.76830307250977C729.9456874506836,64.81047307250977,729.7058409206836,65.93280307250977,729.7058409206836,67.13530307250977C729.6258920506835,72.26599307250976,732.3441544506836,76.99579307250977,736.7413344506836,79.64129307250977L736.3415944506836,79.24049307250976L741.0585244506836,70.02131307250977Z" fill="#FFE3E3" fill-opacity="1"/></g><g><path d="M736.66139125,80.1223483215332C736.58144125,80.1223483215332,736.50149125,80.1223483215332,736.42154125,80.0421483215332C731.86446125,77.3164483215332,729.06625105,72.4263483215332,729.14619986,67.05514832153321C729.14619986,65.8526383215332,729.38604625,64.5699683215332,729.94568825,63.447638321533205C730.50533125,62.245138321533204,731.54466125,61.363299321533205,732.82384125,60.9624653215332C734.26292125,60.6417983215332,735.78195125,61.042632321533205,736.90123125,62.0046383215332C737.94057125,62.8864683215332,738.82001125,63.9286383215332,739.53953125,65.05097832153321C740.41903125,66.3336383215332,741.53823125,67.9369783215332,741.69813125,69.8609783215332C741.69813125,70.1816483215332,741.45833125,70.4221483215332,741.21843125,70.4221483215332C741.21843125,70.4221483215332,741.21843125,70.4221483215332,741.21843125,70.4221483215332C740.89863125,70.4221483215332,740.65883125,70.2618183215332,740.65883125,69.9411483215332C740.65883125,69.9411483215332,740.65883125,69.8609783215332,740.65883125,69.8609783215332C740.57893125,68.3378083215332,739.53953125,66.8146483215332,738.74006125,65.61213832153321C738.10047125,64.5699683215332,737.30098125,63.60796832153321,736.34159125,62.806298321533205C735.46216125,62.084798321533206,734.34287125,61.7641333215332,733.22359125,61.924468321533205C732.26420125,62.245138321533204,731.46471125,62.8864683215332,731.06497125,63.768308321533205C730.58528125,64.7303083215332,730.42538125,65.7724783215332,730.42538125,66.8948083215332C730.42538125,71.46434832153321,732.66395125,75.7933483215332,736.42154125,78.4388483215332C736.58144125,78.4388483215332,736.74134125,78.4388483215332,736.90123125,78.5991483215332L737.30098125,79.0000483215332C737.46088125,79.1603483215332,737.54082125,79.48104832153321,737.38093125,79.7215483215332C737.06113125,80.0421483215332,736.90123125,80.1223483215332,736.66139125,80.1223483215332L736.66139125,80.1223483215332Z" fill="#231F20" fill-opacity="1"/></g><g><path d="M746.4950954418945,93.34986347167968C746.4950954418945,93.34986347167968,740.7387754418945,91.7465234716797,738.0205154418945,87.97868347167969C738.0205154418945,87.97868347167969,738.7400544418946,98.07968347167969,747.5344254418945,100.72518347167968L746.4950954418945,93.34986347167968L746.4950954418945,93.34986347167968Z" fill="#231F20" fill-opacity="1"/></g><g><path d="M747.3745264648437,101.28636262207031L747.5344764648438,101.28636262207031C747.6143764648438,101.28636262207031,747.7742764648438,101.28636262207031,747.9341764648437,101.04586262207032C748.0140764648437,100.96566262207031,748.0940764648437,100.72516262207031,748.0940764648437,100.56486262207031L747.0547364648437,93.18952262207031C747.0547364648437,92.94902262207032,746.8948364648437,92.78869262207031,746.6549864648438,92.70852262207032C746.6549864648438,92.70852262207032,741.1385264648437,91.18535262207031,738.5002064648437,87.57784562207031C738.3403134648438,87.41751242207032,738.1004674648437,87.33734562207032,737.8606204648438,87.41751242207032C737.6207744648437,87.49767962207031,737.4608764648438,87.73817962207032,737.4608764648438,87.97868062207031C737.4608764648438,88.13901362207031,738.3403134648438,98.56066262207031,747.3745264648437,101.28636262207031ZM746.8148964648437,99.9235626220703C741.4583264648437,97.91946262207031,739.5395564648437,92.62842262207032,738.8999664648437,89.82258262207031C740.9786364648437,91.58625262207032,743.3770964648437,92.94909262207031,746.0154064648437,93.75076262207031L746.8148964648437,99.9235626220703Z" fill-rule="evenodd" fill="#231F20" fill-opacity="1"/></g><g transform="matrix(0.0031415775883942842,-0.9999950528144836,0.9999950528144836,0.0031415775883942842,684.7027305340946,816.1872805276415)"><ellipse cx="754.1341042518616" cy="65.62445253133774" rx="2.4050164222717285" ry="0.9593905806541443" fill="#231F20" fill-opacity="1"/></g><g><path d="M757.5280298364257,80.52316852172852L750.0128428364258,77.95782852172852C750.0128428364258,77.95782852172852,748.0940698364258,87.01667852172852,751.7717198364257,90.06302852172851C755.3694098364258,93.18952852172852,757.4480798364258,84.93233852172851,757.5280298364257,80.52316852172852L757.5280298364257,80.52316852172852Z" fill="#231F20" fill-opacity="1"/></g><g><path d="M794.2245316137695,37.87445841217041C793.9047416137695,37.87445841217041,793.6648916137696,37.63395841217041,793.6648916137696,37.39345841217041C793.3451016137695,34.18674841217041,788.4682216137695,34.50740841217041,788.3882716137696,34.50740841217041C788.1484216137695,34.50740841217041,787.8286316137695,34.34707841217041,787.8286316137695,34.10657841217041C787.7486816137696,33.86607841217041,787.9085816137696,33.54540841217041,788.1484216137695,33.46524841217041C789.9073016137695,32.66357841217041,794.6242816137695,30.17840841217041,795.4237416137695,28.17423841217041C795.4237416137695,28.09406841217041,795.4237416137695,28.09406841217041,795.4237416137695,28.01389841217041C795.0240216137695,27.37256541217041,790.6268416137696,27.77339841217041,785.9898056137695,28.89573841217041C785.6700106137695,28.97589841217041,785.4301636137695,28.73539841217041,785.3502153137696,28.41473841217041C785.2702665137696,28.17423841217041,785.4301636137695,27.85356841217041,785.7499596137695,27.77339841217041C787.9085816137696,27.29239841217041,794.9440716137696,25.68906241217041,796.3032416137695,27.21223141217041C796.6230416137695,27.53289941217041,796.7029416137696,28.09406841217041,796.4631416137695,28.49489841217041C795.7435416137695,30.41890841217041,792.6255616137695,32.34290841217041,790.5468916137695,33.46524841217041C792.4656616137695,33.78590841217041,794.5443316137695,34.82807841217041,794.7841716137696,37.23305841217041C794.7841716137696,37.63395841217041,794.5443316137695,37.87445841217041,794.2245316137695,37.87445841217041L794.2245316137695,37.87445841217041L794.2245316137695,37.87445841217041Z" fill="#231F20" fill-opacity="1"/></g><g><path d="M706.7605280947265,156.76176828613282C706.6805790947266,156.76176828613282,706.5206820947266,156.76176828613282,706.4407330947265,156.6816682861328C706.2008864847265,156.5212682861328,706.1209376947265,156.12046828613282,706.2808352947266,155.87996828613282C706.2808352947266,155.87996828613282,706.2808352947266,155.87996828613282,706.2808352947266,155.87996828613282C706.4407330947265,155.6394682861328,723.6297470947266,129.50506828613283,724.9888470947266,119.08340628613281C724.9888470947266,118.76273928613281,725.3086470947266,118.5222389861328,725.6284470947265,118.6024057861328C725.6284470947265,118.6024057861328,725.6284470947265,118.6024057861328,725.6284470947265,118.6024057861328C725.9482470947265,118.6825725861328,726.1880470947266,118.92307328613282,726.1081470947265,119.24374028613282C724.7490470947266,129.9059682861328,707.9597570947266,155.47916828613282,707.2402170947265,156.5212682861328C707.0803230947265,156.6014682861328,706.9204260947265,156.6816682861328,706.7605280947265,156.76176828613282L706.7605280947265,156.76176828613282Z" fill="#231F20" fill-opacity="1"/></g></g></g><g><path d="M405.0333251953125,103.85170418701172C405.0333251953125,103.85170418701172,407.1087751953125,99.62860418701172,406.8396351953125,96.90276418701171C406.5704851953125,94.17692418701172,405.3265581953125,93.46730418701172,405.9485211953125,92.87202518701172C406.5704851953125,92.27674818701172,409.7630351953125,91.83589918701172,410.5586051953125,94.40739418701172C411.3541751953125,96.97888418701172,411.2174251953125,102.28101418701172,412.4278751953125,102.28101418701172C413.6383251953125,102.28101418701172,414.7142351953125,102.00496418701172,414.7142351953125,102.00496418701172C414.7142351953125,102.00496418701172,405.0333251953125,103.85170418701172,405.0333251953125,103.85170418701172Z" fill-rule="evenodd" fill="#FFE3E3" fill-opacity="1"/><path d="M413.5961151953125,101.70924418701172L414.6205451953125,101.51381418701172L414.8384951953125,102.48930418701173Q414.3106751953125,102.62470418701172,413.7534351953125,102.69730418701172L404.1425381953125,104.53070418701172L404.5845881953125,103.63120418701172Q405.0899403953125,102.60290418701172,405.5651061953125,101.23532418701171Q406.4994651953125,98.54614418701172,406.3420551953125,96.95189418701172Q406.2130151953125,95.64509418701172,405.5892281953125,94.26094418701172Q405.3326031953125,93.69151418701172,405.2920091953125,93.43790418701172Q405.2046151953125,92.89191018701172,405.6028011953125,92.51080838701172Q405.9576461953125,92.17118718701172,406.7153951953125,92.01010618701171Q407.4790651953125,91.84776418701172,408.2579151953125,91.95701718701172Q410.4176151953125,92.25997018701172,411.0362651953125,94.25961418701172Q411.3588251953125,95.30222418701172,411.6939051953125,98.11127418701172Q412.1316551953125,101.78101418701172,412.4278751953125,101.78101418701172Q413.0302651953125,101.78101418701172,413.5961151953125,101.70924418701172ZM411.4931651953125,102.11040418701172Q411.2865751953125,101.73226418701172,411.1442051953125,101.14089418701172Q410.9539551953125,100.35068418701172,410.7009451953125,98.22971418701172Q410.3766351953125,95.51093418701171,410.0809451953125,94.55517418701172Q409.6499451953125,93.16207518701172,408.1190051953125,92.94732218701172Q407.5146451953125,92.86254618701172,406.9233251953125,92.98824918701172Q406.4436851953125,93.09021118701172,406.2942451953125,93.23324318701172Q406.2444251953125,93.28092218701173,406.5009251953125,93.85007418701171Q407.1920651953125,95.38368418701172,407.3372151953125,96.85363418701172Q407.5162351953125,98.66667418701172,406.5097151953125,101.56353418701173Q406.2067751953125,102.43540418701171,405.8899541953125,103.17930418701172L411.4931651953125,102.11040418701172Z" fill-rule="evenodd" fill="#231F20" fill-opacity="1"/></g><g><path d="M406.27688741796874,102.49999838476562C406.27688741796874,102.49999838476562,405.54412841796864,104.80182438476562,405.54412841796875,104.80182438476562Q405.54412841796886,104.80182438476562,407.45199841796875,106.00250438476563Q413.44433841796877,103.54265438476563,413.44433841796877,103.54265438476563Q413.44433841796877,103.54265438476563,411.11955841796873,101.91299438476602Q406.27688741796874,102.49999838476562,406.27688741796874,102.49999838476562Z" fill-rule="evenodd" fill="#FFE3E3" fill-opacity="1"/></g></g></svg>